<svg width="189" height="187" viewBox="0 0 189 187" fill="none" xmlns="http://www.w3.org/2000/svg">
<path d="M151.573 89.2112C155.037 90.9984 158.076 93.3912 160.514 96.2511C162.952 99.111 164.741 102.381 165.776 105.872C169.472 117.868 180.775 149.108 180.775 149.108C180.775 149.108 187.234 156.001 187.923 161.104C188.611 166.206 187.234 178.556 185.152 180.861C184.549 181.53 183.776 182.055 182.898 182.39C182.02 182.725 181.065 182.86 180.117 182.784L152.927 180.445L142.214 115.411L151.573 89.2112Z" fill="#B9D4C2"/>
<path d="M61.6702 88.0797C61.6702 88.0797 42.225 93.6334 37.3809 98.4235L53.2982 165.595L53.0151 186.797H145.214C145.214 185.748 146.04 116.417 146.04 116.417L151.573 89.2113L118.827 83.9838L112.369 79.3743L75.9193 81.0543L70.3788 86.0734L61.6702 88.0797Z" fill="#B9D4C2"/>
<g opacity="0.3">
<path d="M69.0863 146.359C68.8032 145.79 68.3899 145.172 67.7165 145.047C66.6069 144.838 65.8646 146.026 65.4896 146.997C62.5499 154.612 58.4768 161.827 53.3832 168.442L53.146 178.758C58.5028 174.655 63.8137 170.261 67.2421 164.7C70.6704 159.139 71.9484 152.162 69.0863 146.359Z" fill="black"/>
</g>
<path d="M37.3808 98.4233C37.3808 98.4233 30.9755 106.344 28.3201 111.516C25.6646 116.688 3.61751 160.111 2.30126 164.603C0.985014 169.094 -2.44335 183.214 7.61981 186.491H28.3354L49.1198 148.358L50.1835 104.102L37.3808 98.4233Z" fill="#B9D4C2"/>
<path d="M29.644 158.945C29.644 158.945 29.1848 158.577 28.2282 158.084C26.8629 157.42 25.3989 156.938 23.8816 156.654C22.8384 156.446 21.7793 156.312 20.7134 156.251C19.4854 156.167 18.2505 156.247 17.0478 156.487C14.3255 157.121 11.8888 158.509 10.0763 160.458C8.23343 162.385 6.88477 164.659 6.12757 167.116C5.50254 169.124 5.08747 171.181 4.88785 173.259C4.68888 175.037 4.62001 176.487 4.55114 177.48C4.55114 177.952 4.48992 178.334 4.47462 178.633C4.47504 178.769 4.45443 178.904 4.41339 179.035C4.40354 178.901 4.40354 178.767 4.41339 178.633C4.41339 178.327 4.41339 177.938 4.41339 177.48C4.41339 176.474 4.4593 175.03 4.62001 173.239C4.7818 171.126 5.174 169.033 5.79085 166.991C6.54272 164.478 7.91093 162.152 9.79317 160.187C11.6622 158.184 14.179 156.766 16.9866 156.133C18.2141 155.901 19.4729 155.838 20.7211 155.946C21.8015 156.018 22.8738 156.169 23.9275 156.397C25.4618 156.706 26.9335 157.231 28.2895 157.952C28.6547 158.157 29.0003 158.389 29.3226 158.646C29.4411 158.735 29.5488 158.835 29.644 158.945Z" fill="#263238"/>
<path d="M19.824 151.35C20.0504 151.29 20.2845 151.258 20.5204 151.253C21.1597 151.208 21.8018 151.208 22.4411 151.253C23.3931 151.304 24.3381 151.432 25.265 151.635C27.5454 152.135 29.6854 153.062 31.5478 154.356C32.3065 154.88 33.0109 155.466 33.6522 156.106C34.087 156.54 34.4836 157.004 34.8384 157.494C34.9828 157.664 35.1012 157.851 35.1904 158.049C35.1291 158.091 34.5629 157.355 33.4456 156.3C32.7855 155.7 32.0769 155.145 31.3258 154.641C30.4009 154.03 29.4174 153.496 28.3872 153.044C27.3512 152.606 26.2759 152.248 25.1731 151.975C24.2686 151.764 23.3476 151.615 22.4182 151.531C20.8265 151.343 19.824 151.42 19.824 151.35Z" fill="#263238"/>
<path d="M38.5446 149.26C38.2242 149.272 37.9033 149.251 37.588 149.198C36.9758 149.128 36.0958 149.045 34.9938 148.969C29.2707 148.582 23.5192 149.206 18.0586 150.808C17.0102 151.114 16.1684 151.385 15.5945 151.586C15.3016 151.703 14.9965 151.794 14.6838 151.857C14.9473 151.691 15.2326 151.555 15.5333 151.454C16.0919 151.211 16.9261 150.906 17.9668 150.565C23.4314 148.81 29.2579 148.179 35.0244 148.719C36.1187 148.823 37.0064 148.941 37.611 149.059C37.9286 149.099 38.2412 149.166 38.5446 149.26Z" fill="#263238"/>
<path d="M97.5361 112.155C97.4522 112.089 97.3799 112.012 97.3218 111.926L96.7555 111.232L94.674 108.622C92.891 106.331 90.3962 103.137 87.4653 99.3885L87.7867 99.3469C86.6694 102.318 85.4374 105.595 84.1441 109.066L84.0599 109.281L83.8456 109.156L83.4171 108.906C81.7497 107.938 80.2336 106.77 78.9097 105.435C77.6861 104.192 76.6066 102.838 75.688 101.395C74.159 98.9524 72.9689 96.3478 72.1448 93.6404C71.5915 91.8117 71.1445 89.958 70.8056 88.0867C70.6832 87.4619 70.5913 86.9551 70.5148 86.5733C70.4931 86.4438 70.4599 86.3161 70.4153 86.1915C70.4153 86.1082 70.3617 86.0666 70.3694 86.0596C70.3771 86.0527 70.6832 86.7538 70.9587 88.0659C71.2342 89.378 71.6703 91.2662 72.4203 93.5502C73.2678 96.2324 74.4731 98.8108 76.0094 101.228C76.9254 102.644 77.9944 103.975 79.2005 105.199C80.5016 106.502 81.9892 107.642 83.6237 108.587L84.0446 108.837L83.7538 108.934C85.0624 105.463 86.3021 102.207 87.4347 99.2149L87.5495 98.9095L87.7561 99.1733C90.6335 102.957 93.1129 106.178 94.8501 108.483C95.6842 109.607 96.3806 110.503 96.8474 111.155L97.3601 111.85C97.4305 111.946 97.4894 112.048 97.5361 112.155Z" fill="#263238"/>
<g opacity="0.3">
<path d="M121.529 144.22C120.703 152.054 122.575 159.926 126.885 166.755C131.171 173.516 137.461 179.549 145.29 182.784C145.542 175.89 145.175 167.768 145.428 160.875L121.529 144.22Z" fill="black"/>
</g>
<path d="M120.664 135.148C120.664 135.148 117.312 135.987 119.822 142.215C122.332 148.442 123.174 148.06 124.85 153.877C126.526 159.695 128.477 164.985 131.401 168.303C134.324 171.621 145.214 178.3 145.214 178.3L154.978 169.969C154.978 169.969 153.371 163.721 153.754 159.514C154.136 155.307 155.116 144.936 154.978 143.138C154.84 141.34 152.744 137.064 152.744 137.064V134.12L147.724 120.111C147.724 120.111 144.93 118.972 143.958 123.02L142.283 118.722C142.283 118.722 139.635 118.341 138.938 123.276C138.242 128.212 139.497 135.043 139.497 135.043L138.097 143.645L136.007 149.469L134.194 149.719C134.194 149.719 131.462 149.025 129.97 144.381C128.477 139.736 124.429 134.134 120.664 135.148Z" fill="#FFBE9D"/>
<path d="M151.734 157.182C151.734 157.182 151.734 157.077 151.688 156.869C151.642 156.661 151.642 156.321 151.619 155.939C151.566 155.092 151.497 153.919 151.413 152.468C151.26 149.448 151.053 145.241 150.808 140.333L150.847 140.437C150.597 140.202 150.28 140.034 149.932 139.95C149.584 139.867 149.217 139.872 148.872 139.965C148.498 140.048 148.145 140.197 147.835 140.404C147.525 140.612 147.264 140.873 147.066 141.173C146.209 142.416 146.163 144.04 145.895 145.602C145.367 149.15 144.862 152.544 144.403 155.606C144.174 157.147 143.929 158.605 143.6 159.958C143.29 161.214 142.883 162.448 142.383 163.652C141.954 164.755 141.572 165.734 141.334 166.658C141.123 167.418 141.017 168.199 141.021 168.983C141.048 169.658 141.176 170.326 141.403 170.969C141.311 170.813 141.235 170.65 141.174 170.483C140.992 170.001 140.889 169.499 140.868 168.99C140.831 168.185 140.916 167.379 141.12 166.595C141.388 165.565 141.723 164.549 142.123 163.554C142.596 162.355 142.979 161.128 143.27 159.882C143.584 158.542 143.821 157.105 144.036 155.55C144.48 152.468 144.977 149.094 145.497 145.54C145.62 144.755 145.712 143.971 145.865 143.193C145.99 142.407 146.281 141.651 146.722 140.965C146.95 140.628 147.249 140.335 147.602 140.104C147.956 139.873 148.356 139.708 148.78 139.618C149.193 139.505 149.632 139.5 150.047 139.604C150.463 139.707 150.838 139.914 151.13 140.201L151.168 140.25V140.305C151.359 145.213 151.52 149.42 151.635 152.447C151.635 153.912 151.704 155.085 151.734 155.918C151.734 156.3 151.734 156.612 151.734 156.848C151.747 156.959 151.747 157.071 151.734 157.182Z" fill="#EB996E"/>
<path d="M146.377 141.215C146.203 140.968 146.064 140.702 145.964 140.423C145.644 139.684 145.371 138.928 145.145 138.16C144.817 137.021 144.584 135.86 144.449 134.689C144.354 133.998 144.339 133.3 144.403 132.607C144.474 131.831 144.764 131.085 145.244 130.441C145.674 129.863 146.304 129.433 147.035 129.219L147.181 129.184L147.257 129.302C148.673 131.565 149.905 133.565 150.762 135.002L151.764 136.702C151.902 136.902 152.01 137.116 152.086 137.341C151.915 137.165 151.766 136.971 151.642 136.765L150.54 135.12C149.622 133.731 148.344 131.739 146.92 129.483L147.142 129.566C146.502 129.76 145.95 130.141 145.574 130.649C145.133 131.244 144.869 131.933 144.808 132.648C144.732 133.327 144.732 134.011 144.808 134.689C144.923 135.857 145.125 137.017 145.413 138.16C145.658 139.132 145.926 139.91 146.102 140.444C146.221 140.692 146.314 140.95 146.377 141.215Z" fill="#EB996E"/>
<path d="M144.036 142.353C143.968 142.087 143.937 141.814 143.944 141.541C143.944 140.944 143.883 140.208 143.845 139.34C143.784 137.48 143.715 134.911 143.676 132.072C143.562 129.644 143.603 127.213 143.799 124.79C143.895 124.054 144.069 123.329 144.319 122.624C144.393 122.358 144.515 122.105 144.679 121.874C144.398 122.84 144.196 123.824 144.074 124.817C143.883 126.657 144.074 129.226 144.074 132.065C144.074 134.904 144.136 137.473 144.128 139.333C144.128 140.208 144.128 140.944 144.128 141.541C144.13 141.814 144.099 142.086 144.036 142.353Z" fill="#EB996E"/>
<path d="M135.777 165.686C135.723 165.644 136.336 164.992 137.086 163.805C137.525 163.112 137.906 162.39 138.226 161.646C138.601 160.729 138.893 159.787 139.098 158.827C139.277 157.864 139.367 156.888 139.366 155.911C139.354 155.114 139.278 154.318 139.136 153.53C138.884 152.176 138.563 151.371 138.631 151.35C138.752 151.52 138.845 151.705 138.907 151.899C139.123 152.413 139.292 152.942 139.412 153.482C139.599 154.279 139.707 155.09 139.733 155.904C139.801 157.913 139.402 159.911 138.563 161.77C138.224 162.525 137.812 163.249 137.33 163.936C137.011 164.402 136.651 164.843 136.251 165.255C135.968 165.547 135.8 165.7 135.777 165.686Z" fill="#EB996E"/>
<path d="M152.918 161.347L161.39 164.013C161.39 164.013 169.486 160.215 175.065 164.013C180.644 167.81 185.488 177.814 183.957 181.861C183.957 181.861 180.131 186.179 177.177 186.811C174.223 187.442 162.859 184.936 158.122 184.034C153.385 183.131 145.212 178.313 145.212 178.313L152.918 161.347Z" fill="#FFBE9D"/>
<path d="M153.963 172.656C153.903 172.428 153.872 172.195 153.871 171.961C153.871 171.441 153.802 170.823 153.756 170.101C153.664 168.532 153.549 166.366 153.511 163.964C153.473 161.562 153.549 159.389 153.703 157.82C153.779 157.036 153.879 156.432 153.963 155.967C153.981 155.728 154.041 155.494 154.139 155.272C154.2 155.272 154.07 156.244 153.986 157.813C153.901 159.382 153.871 161.541 153.909 163.936C153.947 166.331 154.001 168.4 154.032 170.066C154.032 170.851 154.032 171.489 154.032 171.927C154.052 172.171 154.029 172.418 153.963 172.656Z" fill="#EB996E"/>
<path d="M181.898 163.693C181.02 162.866 180.079 162.096 179.082 161.389C176.632 159.725 173.694 158.757 170.638 158.605C167.582 158.453 164.545 159.124 161.909 160.535C160.84 161.139 159.817 161.81 158.848 162.541C159.051 162.286 159.284 162.053 159.545 161.847C160.233 161.266 160.985 160.75 161.787 160.306C164.449 158.802 167.557 158.079 170.688 158.237C173.818 158.395 176.819 159.425 179.281 161.187C180.025 161.707 180.707 162.295 181.316 162.944C181.542 163.172 181.737 163.424 181.898 163.693Z" fill="#263238"/>
<path d="M180.814 157.286C179.719 156.573 178.535 155.981 177.286 155.523C174.215 154.534 170.88 154.444 167.751 155.266C166.029 155.704 164.372 156.329 162.815 157.126C161.547 157.787 160.351 158.554 159.241 159.417C158.292 160.153 157.565 160.805 157.068 161.243C156.824 161.496 156.555 161.728 156.264 161.937C156.463 161.657 156.694 161.396 156.953 161.16C157.614 160.483 158.317 159.841 159.057 159.237C160.157 158.336 161.354 157.538 162.631 156.855C164.204 156.022 165.889 155.375 167.644 154.932C170.85 154.083 174.275 154.212 177.393 155.3C178.324 155.638 179.202 156.086 180.002 156.633C180.286 156.821 180.477 157.001 180.622 157.112C180.768 157.223 180.814 157.279 180.814 157.286Z" fill="#263238"/>
<path d="M180.88 151.732C180.88 151.801 179.35 151.392 176.916 151.093C175.478 150.918 174.028 150.835 172.577 150.843C170.8 150.861 169.027 151.005 167.274 151.274C165.525 151.565 163.803 151.979 162.124 152.51C160.755 152.951 159.423 153.479 158.137 154.092C155.941 155.134 154.701 155.981 154.655 155.918C154.915 155.689 155.2 155.485 155.504 155.307C155.838 155.069 156.188 154.851 156.553 154.655C156.974 154.412 157.448 154.127 157.999 153.863C159.285 153.218 160.623 152.661 162.002 152.197C163.693 151.637 165.434 151.21 167.205 150.92C168.975 150.648 170.767 150.511 172.562 150.51C174.031 150.517 175.497 150.626 176.947 150.837C177.567 150.906 178.118 151.038 178.6 151.128C179.019 151.205 179.433 151.302 179.84 151.42C180.196 151.496 180.544 151.601 180.88 151.732Z" fill="#263238"/>
<path d="M115.965 83.7549C116.282 84.4012 116.479 85.091 116.547 85.7959C116.775 87.7869 116.667 89.7979 116.225 91.7592C115.957 93.167 115.591 94.5581 115.131 95.9244C114.528 97.5143 113.785 99.0581 112.912 100.541C111.083 103.734 108.787 107.212 106.124 110.954L105.818 111.391V110.871C105.818 108.413 105.818 105.838 105.818 103.165L106.116 103.297L98.9303 108.497L98.9915 108.413C97.287 113.481 96.2392 118.711 95.8693 123.998C95.1652 132.447 95.7316 140.528 96.1678 147.858C96.6039 155.189 96.7953 161.805 97.0478 167.359C97.3003 172.913 97.5069 177.397 97.6906 180.5C97.7977 182.042 97.8743 183.236 97.9278 184.069C97.9278 184.464 97.9814 184.763 97.9967 184.999C98.012 185.235 97.9967 185.318 97.9967 185.318C97.9967 185.318 97.9967 185.214 97.9431 185.006C97.8896 184.798 97.8819 184.471 97.836 184.076C97.7518 183.263 97.6447 182.062 97.5299 180.507C97.3003 177.411 97.0325 172.92 96.7647 167.366C96.4968 161.812 96.1677 155.21 95.8004 147.872C95.4331 140.535 94.7673 132.447 95.4714 123.971C95.8583 118.652 96.9345 113.393 98.6778 108.302V108.254H98.7237L105.887 103.04L106.185 102.818V103.165C106.185 105.838 106.185 108.413 106.185 110.871L105.871 110.781C111.129 103.387 115.406 96.9588 116.064 91.7592C116.519 89.8164 116.658 87.8238 116.478 85.8445C116.415 85.3244 116.31 84.8093 116.164 84.3033C116.011 83.9284 115.965 83.7549 115.965 83.7549Z" fill="#263238"/>
<path d="M102.237 173.302H101.992C101.434 173.334 100.913 173.562 100.538 173.937C100.162 174.312 99.9622 174.804 99.9801 175.311C99.998 175.817 100.232 176.297 100.633 176.65C101.035 177.002 101.571 177.199 102.129 177.199C102.688 177.199 103.224 177.002 103.625 176.65C104.027 176.297 104.261 175.817 104.279 175.311C104.297 174.804 104.097 174.312 103.721 173.937C103.346 173.562 102.824 173.334 102.267 173.302H102.237Z" fill="white"/>
<path d="M102.236 146.546H101.991C101.436 146.579 100.917 146.806 100.543 147.18C100.169 147.553 99.9695 148.044 99.9874 148.549C100.005 149.053 100.239 149.531 100.638 149.883C101.038 150.234 101.573 150.43 102.129 150.43C102.685 150.43 103.22 150.234 103.62 149.883C104.019 149.531 104.253 149.053 104.271 148.549C104.289 148.044 104.089 147.553 103.716 147.18C103.342 146.806 102.822 146.579 102.267 146.546H102.236Z" fill="white"/>
<path d="M101.994 122.61C102.565 122.644 103.128 122.471 103.559 122.128C103.989 121.786 104.252 121.302 104.29 120.784C104.327 120.266 104.136 119.755 103.759 119.365C103.381 118.974 102.848 118.735 102.277 118.701H101.994C101.422 118.701 100.873 118.908 100.468 119.275C100.063 119.642 99.8359 120.14 99.8359 120.659C99.8359 121.178 100.063 121.676 100.468 122.043C100.873 122.411 101.422 122.617 101.994 122.617V122.61Z" fill="white"/>
<path d="M68.9106 52.404C66.2322 49.7035 63.5538 46.9822 61.5718 43.8166C59.5898 40.651 58.4495 36.9508 59.0924 33.4034C59.475 31.3208 60.4545 29.3075 60.6229 27.1555C60.8371 24.2398 59.4903 21.1922 60.6229 18.4639C62.3983 14.1876 68.7423 13.5281 72.5839 10.5777C75.576 8.27985 77.03 4.55192 80.3206 2.62201C83.198 0.928132 86.8942 0.969783 90.269 1.4002C93.6438 1.83061 97.0722 2.61507 100.47 2.19854C102.888 1.90697 105.169 1.01838 107.533 0.483835C109.898 -0.0507091 112.553 -0.210378 114.658 0.92813C116.762 2.06664 117.956 4.75324 116.571 6.57902C120.504 4.93374 125.502 7.71753 126.581 11.5218C127.66 15.3261 125.502 19.4428 122.165 21.935C118.828 24.4272 114.512 25.6143 110.265 26.3433C98.2201 28.4259 85.1418 27.2388 74.7572 21.3241" fill="#263238"/>
<path d="M111.283 89.1487C110.694 84.9834 110.211 81.561 110.181 81.1305C110.181 81.1305 125.425 78.0205 124.583 64.039C124.177 57.2774 122.096 43.4209 120.045 30.9043C118.991 24.4157 115.28 18.5257 109.652 14.4084C104.025 10.2912 96.8931 8.24921 89.6795 8.68946L88.149 8.77277C72.1933 10.5985 64.9769 23.9135 67.4257 38.3393L76.0426 86.7051C76.0426 86.7051 79.7158 97.4029 87.575 99.2564L97.5234 112.113L99.161 106.56L106.553 100.714C107.97 99.2031 109.195 97.5521 110.204 95.7923C111.332 93.738 111.71 91.411 111.283 89.1487Z" fill="#FFBE9D"/>
<path d="M110.186 80.9361C110.186 80.9361 100.506 82.2412 89.7234 76.9722C89.7234 76.9722 95.2179 86.7397 110.493 84.553L110.186 80.9361Z" fill="#EB996E"/>
<path d="M115.093 42.928C115.136 43.4482 114.954 43.9632 114.586 44.3636C114.217 44.7641 113.691 45.0186 113.119 45.0731C112.841 45.1101 112.557 45.0961 112.285 45.0319C112.012 44.9676 111.757 44.8545 111.533 44.6992C111.31 44.5438 111.123 44.3494 110.984 44.1275C110.845 43.9055 110.757 43.6605 110.724 43.407C110.673 42.8826 110.853 42.3611 111.224 41.9566C111.595 41.5521 112.128 41.2973 112.706 41.248C112.985 41.212 113.269 41.2273 113.541 41.2928C113.814 41.3584 114.069 41.4729 114.292 41.6296C114.514 41.7863 114.7 41.9819 114.838 42.205C114.976 42.428 115.062 42.6739 115.093 42.928Z" fill="#263238"/>
<path d="M117.242 37.9716C116.99 38.2493 115.237 37.2288 112.872 37.3815C110.508 37.5343 108.878 38.7075 108.572 38.4714C108.442 38.3673 108.686 37.8814 109.406 37.3329C110.38 36.626 111.573 36.2112 112.819 36.1458C114.051 36.0646 115.28 36.3445 116.324 36.9442C117.089 37.3885 117.364 37.8467 117.242 37.9716Z" fill="#263238"/>
<path d="M92.7321 44.379C92.7769 44.8988 92.5952 45.414 92.2261 45.8137C91.857 46.2135 91.3298 46.466 90.7577 46.5171C90.4797 46.5552 90.1961 46.5421 89.9237 46.4787C89.6514 46.4153 89.3959 46.3029 89.1724 46.1481C88.949 45.9933 88.7621 45.7993 88.623 45.5777C88.4838 45.356 88.3952 45.1113 88.3624 44.858C88.3194 44.3388 88.5005 43.8248 88.8674 43.4245C89.2344 43.0242 89.7586 42.769 90.3292 42.7128C90.608 42.6758 90.8923 42.6898 91.1651 42.7539C91.4379 42.8181 91.6939 42.9311 91.9178 43.0864C92.1417 43.2416 92.3291 43.436 92.469 43.658C92.6088 43.88 92.6983 44.1251 92.7321 44.379Z" fill="#263238"/>
<path d="M94.0101 39.7833C93.7499 40.061 92.0051 39.0405 89.6404 39.1932C87.2758 39.3459 85.6151 40.5191 85.3397 40.2692C85.2019 40.1651 85.4468 39.6792 86.1661 39.1307C87.1444 38.4249 88.3391 38.0103 89.5869 37.9436C90.8167 37.8635 92.0425 38.1433 93.0841 38.742C93.8493 39.2001 94.1325 39.6583 94.0101 39.7833Z" fill="#263238"/>
<path d="M103.768 55.188C103.768 55.063 105.207 54.7437 107.594 54.3202C108.191 54.23 108.757 54.0842 108.834 53.7093C108.841 53.1385 108.657 52.5792 108.306 52.1057L106.209 48.0376C103.293 42.2479 101.135 37.4647 101.396 37.3606C101.656 37.2565 104.227 41.8661 107.15 47.6627L109.171 51.7586C109.599 52.3968 109.767 53.1509 109.645 53.8898C109.571 54.0878 109.448 54.2681 109.287 54.4171C109.125 54.5662 108.928 54.6802 108.711 54.7506C108.383 54.8542 108.041 54.9195 107.694 54.945C105.275 55.2088 103.791 55.306 103.768 55.188Z" fill="#263238"/>
<path d="M93.9958 31.3277C93.8045 31.9317 91.4246 31.7929 88.639 32.2649C85.8535 32.737 83.6878 33.5631 83.2822 33.0633C83.0985 32.8203 83.4506 32.251 84.3153 31.6262C85.4736 30.8637 86.8071 30.3489 88.2159 30.1205C89.6248 29.8921 91.0723 29.9559 92.45 30.3072C93.529 30.6196 94.08 31.0501 93.9958 31.3277Z" fill="#263238"/>
<path d="M115.912 31.8067C115.537 32.3204 113.869 31.9178 111.902 32.008C109.936 32.0983 108.306 32.5565 107.885 32.0705C107.701 31.8345 107.931 31.3277 108.65 30.8209C109.585 30.2109 110.698 29.8656 111.849 29.8285C112.999 29.7915 114.136 30.0643 115.117 30.6127C115.821 31.0708 116.081 31.529 115.912 31.8067Z" fill="#263238"/>
<path d="M69.4836 48.6482C69.2158 48.5649 58.6935 46.4545 59.7342 55.986C60.775 65.5176 72.1468 62.4075 72.1468 62.1368C72.1468 61.866 69.4836 48.6482 69.4836 48.6482Z" fill="#FFBE9D"/>
<path d="M67.4938 59.0061C67.4403 59.0061 67.3255 59.138 67.027 59.2907C66.6123 59.5008 66.1235 59.5556 65.6648 59.4435C64.5093 59.1727 63.3691 57.6593 63.1625 55.9724C63.0481 55.1578 63.1344 54.3303 63.415 53.5496C63.4836 53.2449 63.632 52.9596 63.8478 52.7179C64.0636 52.4763 64.3404 52.2853 64.6547 52.1612C64.8603 52.0923 65.0859 52.0907 65.2927 52.1566C65.4994 52.2225 65.6743 52.3518 65.7873 52.5222C65.9556 52.779 65.9097 52.9734 65.9633 52.9803C66.0169 52.9873 66.1699 52.8068 66.0475 52.418C65.9613 52.1866 65.7914 51.9885 65.5654 51.8557C65.4097 51.7609 65.2349 51.6949 65.0511 51.6615C64.8672 51.6282 64.6779 51.6281 64.494 51.6613C64.0719 51.7788 63.69 51.9922 63.3846 52.2814C63.0792 52.5707 62.8604 52.926 62.7492 53.3136C62.3905 54.179 62.2722 55.1112 62.4048 56.0279C62.6803 57.9439 63.9354 59.6448 65.5194 59.9016C65.8106 59.9518 66.1105 59.9417 66.3967 59.872C66.683 59.8023 66.9481 59.6747 67.1724 59.499C67.5015 59.2352 67.555 59.02 67.4938 59.0061Z" fill="#EB996E"/>
<path d="M119.27 17.8878C118.551 21.6851 110.087 25.1631 103.032 24.9757C96.5498 24.8021 93.3433 21.8864 88.637 19.8107C85.6525 18.4987 85.6525 18.4987 81.6043 19.1165C78.3366 19.5955 76.6377 23.1013 74.8011 25.6005C78.2984 32.5426 76.8826 40.5677 75.398 48.0652C75.334 48.9107 74.9595 49.7124 74.3343 50.3422C73.1558 51.2863 71.2733 50.724 70.0795 49.7591C68.2199 48.211 67.3704 45.9201 66.7659 43.6986C65.2831 38.646 64.9292 33.3753 65.7251 28.1968C66.5297 22.993 68.9988 18.1175 72.8268 14.1737C77.8331 9.38809 84.6924 6.55312 91.9582 6.26664C99.1877 6.03157 106.315 7.86784 112.329 11.5149C115.115 13.1741 117.686 15.222 119.293 17.8808" fill="#263238"/>
<path d="M105.319 59.9917L99.9623 57.7286C99.6687 57.571 99.3312 57.4939 98.9904 57.5064C98.6136 57.5834 98.2829 57.7868 98.0644 58.0757C97.4366 58.7575 97.0449 59.5925 96.9387 60.4756C96.8325 61.3588 97.0165 62.2508 97.4675 63.0393C97.9579 63.8075 98.7289 64.3959 99.6471 64.7027C100.565 65.0095 101.573 65.0154 102.495 64.7193C104.393 64.0251 105.311 62.0049 105.465 60.1445L105.319 59.9917Z" fill="#EB996E"/>
<path d="M102.665 65.0805C102.665 65.1221 102.413 65.261 101.9 65.3651C101.133 65.49 100.343 65.4375 99.6043 65.2124C98.4745 64.8672 97.5274 64.1517 96.9489 63.2061C96.5828 62.6299 96.3633 61.9869 96.3064 61.3239C96.2494 60.6609 96.3565 59.9947 96.6198 59.374C96.8891 58.7308 97.3125 58.1499 97.8595 57.6732C98.125 57.4455 98.4176 57.2452 98.7319 57.0762C98.9203 56.9744 99.1329 56.9149 99.3518 56.9027C99.5644 56.8949 99.7762 56.9305 99.9716 57.0068C100.257 57.1375 100.536 57.2811 100.806 57.4372L101.533 57.8468L102.841 58.5826C104.425 59.499 105.382 60.1099 105.328 60.1932C105.275 60.2765 104.219 59.8322 102.558 59.0269L101.204 58.3327L100.438 57.9509C100.178 57.8329 99.9028 57.6732 99.6732 57.5899C99.5789 57.5489 99.4739 57.5324 99.3699 57.5422C99.2659 57.552 99.1669 57.5877 99.0839 57.6455C98.8298 57.7909 98.5938 57.9608 98.3799 58.1522C97.9257 58.5624 97.5712 59.0543 97.3391 59.5962C97.1171 60.122 97.0227 60.685 97.0623 61.2469C97.1019 61.8087 97.2746 62.3562 97.5687 62.8521C98.0457 63.6829 98.8281 64.3362 99.7803 64.6987C100.439 64.9394 101.144 65.0597 101.854 65.0527C102.359 65.0735 102.642 65.0319 102.665 65.0805Z" fill="#263238"/>
<path d="M100.973 43.171C100.897 42.3576 100.756 41.5502 100.552 40.7551C100.173 39.4259 99.4918 38.1832 98.552 37.107C97.6121 36.0308 96.4344 35.1449 95.0946 34.5061C93.7549 33.8674 92.2826 33.49 90.7725 33.3981C89.2624 33.3062 87.7477 33.5019 86.3259 33.9727C85.346 34.2917 84.4249 34.7434 83.594 35.3125C82.7082 35.888 81.9326 36.5916 81.2982 37.3952C79.9343 39.068 79.1982 41.0938 79.1982 43.1745C79.1982 45.2552 79.9343 47.2809 81.2982 48.9538C81.9326 49.7574 82.7082 50.461 83.594 51.0364C84.4249 51.6056 85.346 52.0573 86.3259 52.3763C87.748 52.8426 89.2616 53.0349 90.7702 52.941C92.2788 52.8471 93.7492 52.469 95.0877 51.8309C96.4263 51.1927 97.6035 50.3085 98.5443 49.2346C99.4852 48.1607 100.169 46.9208 100.552 45.5938C100.755 44.8009 100.896 43.9959 100.973 43.1849C100.982 43.2378 100.982 43.2916 100.973 43.3446C100.973 43.4695 100.973 43.6292 100.973 43.8166C100.98 44.0747 100.959 44.3327 100.912 44.5872C100.869 44.9382 100.8 45.2861 100.705 45.6285C100.463 46.5736 100.063 47.4796 99.519 48.3151C98.2118 50.3418 96.1634 51.889 93.7295 52.6879C91.2955 53.4869 88.63 53.4872 86.1958 52.6887C85.1818 52.3597 84.2295 51.8914 83.3721 51.3002C82.4585 50.7064 81.6572 49.982 80.9998 49.1551C79.5862 47.4222 78.8232 45.3233 78.8232 43.1675C78.8232 41.0117 79.5862 38.9129 80.9998 37.1799C81.6525 36.3518 82.4515 35.627 83.3644 35.0348C84.2218 34.4437 85.1742 33.9754 86.1882 33.6464C88.0635 33.0355 90.0851 32.8917 92.0424 33.2299C93.592 33.4988 95.0602 34.0653 96.3485 34.8915C97.6367 35.7177 98.7152 36.7844 99.5114 38.0199C100.055 38.8555 100.455 39.7615 100.698 40.7065C100.792 41.049 100.861 41.3969 100.904 41.7479C100.952 42.0024 100.972 42.2604 100.965 42.5184C100.965 42.7059 100.965 42.8655 100.965 42.9905C100.978 43.05 100.98 43.1108 100.973 43.171Z" fill="#263238"/>
<path d="M127.176 42.2339C127.101 41.4419 126.966 40.6555 126.77 39.8805C126.157 37.7809 124.782 35.9297 122.868 34.6253C121.563 33.7253 120.042 33.1187 118.429 32.8551C116.579 32.5469 114.671 32.6931 112.904 33.2785C111.953 33.5905 111.058 34.028 110.248 34.5767C109.396 35.1428 108.647 35.8268 108.029 36.6038C106.706 38.2357 105.993 40.2083 105.993 42.2339C105.993 44.2595 106.706 46.2321 108.029 47.864C108.645 48.6404 109.395 49.3224 110.248 49.8841C111.056 50.4376 111.952 50.8776 112.904 51.1892C114.672 51.7714 116.579 51.9175 118.429 51.6127C120.042 51.3491 121.563 50.7424 122.868 49.8425C124.782 48.5381 126.157 46.6869 126.77 44.5873C126.966 43.8123 127.101 43.0259 127.176 42.2339C127.194 42.4395 127.194 42.6461 127.176 42.8517C127.179 43.1051 127.158 43.3582 127.115 43.6084C127.074 43.95 127.008 44.2887 126.916 44.622C126.428 46.4401 125.376 48.0932 123.884 49.3852C122.392 50.6772 120.523 51.5539 118.498 51.9112C116.589 52.2381 114.618 52.0968 112.789 51.5016C110.767 50.8333 109.005 49.6408 107.723 48.0722C106.346 46.382 105.603 44.3356 105.603 42.2339C105.603 40.1321 106.346 38.0858 107.723 36.3956C109.005 34.827 110.767 33.6345 112.789 32.9662C114.618 32.371 116.589 32.2296 118.498 32.5566C120.523 32.9139 122.392 33.7905 123.884 35.0825C125.376 36.3745 126.428 38.0277 126.916 39.8458C127.008 40.1791 127.074 40.5178 127.115 40.8593C127.158 41.1096 127.179 41.3627 127.176 41.616C127.194 41.8217 127.194 42.0283 127.176 42.2339Z" fill="#263238"/>
<path d="M105.817 40.0402C105.772 40.0749 105.519 39.8875 105.052 39.6862C104.45 39.4262 103.79 39.2956 103.124 39.3044C102.459 39.313 101.805 39.4653 101.218 39.7487C100.759 39.9639 100.514 40.1652 100.453 40.1235C100.392 40.0819 100.591 39.8181 101.05 39.5265C101.655 39.1529 102.367 38.9479 103.098 38.9368C103.83 38.9257 104.549 39.1089 105.167 39.464C105.634 39.7417 105.817 40.0125 105.817 40.0402Z" fill="#263238"/>
<path d="M79.6858 41.7549C78.1715 43.0026 76.5714 44.162 74.8953 45.2259C73.2919 46.3826 71.6101 47.4468 69.8599 48.4124C71.3725 47.16 72.9755 46.0004 74.658 44.9413C76.2566 43.7822 77.9361 42.7178 79.6858 41.7549Z" fill="#263238"/>
<g opacity="0.3">
<path d="M70.6154 86.9341C69.5517 96.3545 73.5004 106.303 81.8341 112.009C82.4845 112.46 83.3034 112.905 84.0763 112.648C84.5917 112.421 85.0033 112.038 85.2395 111.565C87.5733 107.907 88.4488 103.632 87.7189 99.4577C86.4027 102.609 85.2701 105.706 83.9385 108.996C76.6915 104.997 72.1459 96.5003 70.6154 86.9341Z" fill="black"/>
</g>
<path opacity="0.3" d="M98.8298 108.358L104.952 106.331L105.962 115.709C105.962 115.709 112.559 104.803 115.291 99.8328C118.023 94.8622 116.614 86.0735 116.614 86.0735C116.614 86.0735 117.586 93.7098 110.982 103.477L105.993 110.836V103.13L98.8298 108.358Z" fill="black"/>
<g opacity="0.3">
<path d="M27.761 156.022C24.9701 154.947 21.904 154.598 18.9069 155.015C15.7131 155.252 12.6576 156.301 10.0911 158.042C7.61168 159.854 5.93577 162.714 6.26483 165.588L6.57093 165.623C8.706 160.389 12.9455 156.598 18.4171 156.119C23.8888 155.64 29.2226 157.862 32.9571 161.506C32.5515 158.785 30.4547 157.181 27.761 156.022Z" fill="black"/>
</g>
<g opacity="0.3">
<path d="M182.301 161.347C180.18 159.372 177.407 158.078 174.403 157.66C171.787 157.263 169.105 157.405 166.556 158.074C164.008 158.743 161.658 159.923 159.68 161.527L160.843 160.666C163.802 159.05 167.199 158.213 170.654 158.251C174.12 158.304 177.445 159.51 179.997 161.638C182.293 163.61 183.663 166.283 184.971 168.886C185.183 167.528 185.053 166.144 184.591 164.838C184.128 163.532 183.345 162.339 182.301 161.347Z" fill="black"/>
</g>
<path d="M142.895 117.82C142.957 117.559 143.05 117.306 143.171 117.063C143.408 116.514 143.699 115.841 144.035 115.043C144.801 113.342 145.795 110.995 146.867 108.378C147.938 105.761 148.864 103.38 149.53 101.658L150.295 99.6104C150.377 99.3546 150.49 99.1078 150.632 98.8745C150.608 99.1405 150.544 99.4021 150.44 99.652C150.295 100.152 150.065 100.86 149.767 101.735C149.17 103.484 148.282 105.9 147.211 108.503C146.14 111.107 145.076 113.467 144.265 115.14C143.867 115.98 143.5 116.653 143.278 117.118C143.182 117.366 143.054 117.601 142.895 117.82Z" fill="#263238"/>
<path d="M46.4199 118.5C46.3127 118.5 45.4786 115.217 44.5603 111.121C43.642 107.025 42.9839 103.727 43.068 103.672C43.1522 103.616 44.0017 106.955 44.92 111.051C45.8383 115.147 46.527 118.479 46.4199 118.5Z" fill="#263238"/>
<path d="M44.9737 159.799C45.2186 159.91 42.1729 138.167 42.1729 138.167C42.1729 138.167 44.0937 121.666 45.1727 120.902V115.078C45.1727 115.078 48.1495 113.446 48.9454 116.084C48.9454 116.084 51.5855 114.002 52.0064 118.951C52.4273 123.901 52.5651 128.955 52.5651 128.955L58.4346 142.27L59.3988 142.714C59.3988 142.714 60.6615 132.301 61.3962 130.746C62.1308 129.191 62.6359 125.477 65.4138 126.039C68.1917 126.602 68.4289 128.684 67.9315 132.086C67.4341 135.488 66.8065 139.028 67.0438 141.208C67.281 143.388 68.3753 148.24 68.0386 152.086C67.7019 155.932 65.3755 159.986 62.942 162.833C60.5085 165.679 55.848 171.573 53.3227 173.343C52.5039 173.968 44.9737 159.799 44.9737 159.799Z" fill="#FFBE9D"/>
<path d="M47.9419 142.103C47.9037 141.794 47.9037 141.482 47.9419 141.173C47.9879 140.479 48.0567 139.66 48.1333 138.646C48.3093 136.515 48.5848 133.571 48.8985 130.316C49.0669 128.698 49.2276 127.157 49.373 125.741C49.4603 125.088 49.4603 124.429 49.373 123.776C49.2915 123.217 49.0246 122.694 48.6077 122.277C48.3019 121.977 47.9313 121.739 47.5192 121.575C47.1071 121.411 46.6623 121.326 46.2124 121.326C45.8757 121.34 45.5406 121.377 45.21 121.437C45.2851 121.389 45.3676 121.351 45.4548 121.326C45.7003 121.242 45.9584 121.193 46.2201 121.18C46.7026 121.155 47.1854 121.224 47.6357 121.384C48.086 121.543 48.4932 121.788 48.8296 122.103C49.2924 122.554 49.5892 123.124 49.6791 123.734C49.775 124.41 49.775 125.093 49.6791 125.769C49.5413 127.157 49.3883 128.733 49.2352 130.35C48.9062 133.599 48.5848 136.536 48.3322 138.681L48.0185 141.201C48.0215 141.503 47.9959 141.805 47.9419 142.103Z" fill="#EB996E"/>
<path d="M51.0946 133.21C50.6671 133.738 50.3173 134.315 50.0538 134.925C49.5871 136.462 49.262 138.032 49.0819 139.618C48.7605 141.478 48.4544 143.158 48.2096 144.373C48.1207 145.036 47.9618 145.689 47.7351 146.324C47.738 145.656 47.8046 144.989 47.9341 144.331C48.1024 143.11 48.3703 141.423 48.6993 139.562C49.0284 137.702 49.2427 136.001 49.809 134.835C50.0102 134.378 50.2919 133.953 50.6431 133.578C50.8956 133.3 51.0793 133.196 51.0946 133.21Z" fill="#EB996E"/>
<path d="M48.9373 115.8C49.0438 116.021 49.1134 116.255 49.1439 116.494C49.251 116.938 49.3811 117.584 49.5265 118.389C49.8173 119.993 50.1387 122.221 50.3453 124.7C50.552 127.178 50.5902 129.427 50.5596 131.052C50.5596 131.864 50.5213 132.523 50.4831 132.975C50.4895 133.209 50.4586 133.443 50.3912 133.669C50.2984 132.797 50.2601 131.921 50.2765 131.045C50.2382 129.42 50.1463 127.185 49.9474 124.72C49.7484 122.256 49.4729 120.028 49.251 118.417C49.0893 117.551 48.9846 116.677 48.9373 115.8Z" fill="#EB996E"/>
<path d="M65.8725 136.182C65.5823 136.352 65.2505 136.454 64.9063 136.481C64.5621 136.508 64.2159 136.457 63.8982 136.334C62.7732 136.029 62.2528 135.244 62.3676 135.21C62.8946 135.513 63.4503 135.773 64.0283 135.987C64.636 136.098 65.2529 136.163 65.8725 136.182Z" fill="#EB996E"/>
<path d="M45.3017 157.091L29.7975 163.006H20.5532C20.5532 163.006 11.416 165.595 10.0079 173.371C8.59985 181.146 8.40089 185.138 12.4185 186.102C16.4361 187.067 27.7849 187.172 33.4096 185.478C39.0342 183.784 53.7731 172.982 53.7731 172.982L55.1888 165.179L45.3017 157.091Z" fill="#FFBE9D"/>
<path d="M48.9356 165.686C48.9356 165.686 48.7596 165.568 48.4917 165.318C48.1227 164.955 47.7873 164.565 47.4893 164.151C46.5186 162.778 45.7881 161.277 45.3236 159.702C44.8436 158.14 44.5234 156.541 44.367 154.925C44.2639 154.258 44.2433 153.583 44.3058 152.912C44.4716 153.563 44.5842 154.224 44.6425 154.891C44.8787 156.482 45.2341 158.057 45.7062 159.604C46.1683 161.149 46.8473 162.632 47.7265 164.02C48.4229 165.068 48.9892 165.637 48.9356 165.686Z" fill="#EB996E"/>
<path d="M55.6929 168.15C56.1034 167.177 56.3984 166.167 56.5729 165.137C56.9201 162.626 56.1733 160.09 54.4914 158.07C53.5502 156.876 52.4865 155.835 51.5911 154.821C50.7757 153.938 50.0723 152.974 49.4943 151.947C49.1148 151.247 48.8567 150.498 48.729 149.726C48.6821 149.445 48.6821 149.16 48.729 148.879C48.9084 149.906 49.2648 150.902 49.7851 151.829C50.3878 152.82 51.1034 153.751 51.9202 154.606C52.8155 155.592 53.8869 156.633 54.8511 157.855C55.7891 159.001 56.4489 160.314 56.7872 161.708C57.048 162.85 57.0817 164.026 56.8867 165.179C56.7581 165.948 56.5215 166.7 56.1827 167.414C56.0602 167.664 55.9454 167.852 55.8689 167.977C55.7924 168.102 55.7005 168.157 55.6929 168.15Z" fill="#EB996E"/>
<path d="M31.7774 134.273C30.402 132.249 29.1402 130.164 27.997 128.025C26.0073 124.554 24.4768 121.666 24.5686 121.617C25.944 123.641 27.2058 125.726 28.349 127.865C29.6115 129.947 30.7558 132.085 31.7774 134.273Z" fill="white"/>
<path d="M56.8416 108.941C57.494 107.161 58.2736 105.422 59.1756 103.734C59.9584 102 60.8607 100.312 61.8769 98.6802C61.2205 100.459 60.4409 102.198 59.5429 103.887C58.762 105.622 57.8597 107.31 56.8416 108.941Z" fill="white"/>
<path d="M81.4302 125.38C80.1605 124.271 78.9838 123.079 77.9101 121.811C76.7396 120.619 75.6679 119.35 74.7036 118.014C75.9743 119.119 77.1487 120.312 78.2162 121.582C79.3903 122.774 80.4647 124.043 81.4302 125.38Z" fill="white"/>
<path d="M75.7715 147.99C76.548 146.721 77.4333 145.51 78.4193 144.367C79.307 143.158 80.3026 142.018 81.3961 140.958C80.6217 142.228 79.7363 143.44 78.7484 144.582C77.8655 145.793 76.8695 146.934 75.7715 147.99Z" fill="white"/>
<path d="M68.167 179.931C67.8099 179.502 67.5094 179.036 67.2717 178.543C66.7666 177.654 66.1162 176.411 65.458 175.016C64.7999 173.621 64.2719 172.323 63.9275 171.385C63.6987 170.886 63.5343 170.364 63.4377 169.83C63.7529 170.291 64.0096 170.782 64.203 171.295L65.8483 174.87C66.4835 176.196 67.0498 177.397 67.5472 178.432C67.8146 178.909 68.0225 179.412 68.167 179.931Z" fill="white"/>
<path d="M89.7489 166.352C88.184 166.258 86.6303 166.047 85.1038 165.72C83.5451 165.511 82.009 165.181 80.5122 164.735C83.618 165.038 86.69 165.579 89.6953 166.352H89.7489Z" fill="white"/>
<path d="M106.584 136.508C107.955 134.897 109.432 133.362 111.007 131.912C112.488 130.376 114.067 128.921 115.736 127.553C114.36 129.164 112.88 130.701 111.306 132.155C109.825 133.687 108.248 135.14 106.584 136.508Z" fill="white"/>
<path d="M123.418 176.307C123.333 176.377 120.862 173.773 117.892 170.511C114.923 167.248 112.589 164.54 112.673 164.478C112.758 164.415 115.229 167.012 118.199 170.275C121.168 173.537 123.486 176.245 123.418 176.307Z" fill="white"/>
<path d="M18.731 159.348C18.7845 159.445 16.527 160.486 14.0629 162.201C11.5987 163.916 9.88456 165.609 9.79272 165.533C10.0709 165.094 10.4219 164.696 10.8335 164.353C11.75 163.465 12.7485 162.65 13.818 161.916C14.883 161.179 16.0144 160.524 17.2004 159.959C17.6752 159.689 18.1908 159.483 18.731 159.348Z" fill="white"/>
<path d="M25.0362 143.991C24.55 144.974 23.9469 145.905 23.2379 146.768C22.6337 147.698 21.9177 148.564 21.1028 149.351C21.5903 148.369 22.1933 147.438 22.9011 146.574C23.5037 145.643 24.2199 144.777 25.0362 143.991Z" fill="white"/>
<path d="M39.242 159.07C38.0167 157.303 37.493 155.209 37.7574 153.135C37.8722 153.135 37.9104 154.523 38.3313 156.14C38.7522 157.758 39.3491 159.021 39.242 159.07Z" fill="white"/>
<path d="M41.3448 111.225C40.3934 111.526 39.4032 111.715 38.3986 111.787C37.4104 111.975 36.399 112.043 35.3911 111.988C36.3454 111.688 37.338 111.499 38.345 111.426C39.3312 111.242 40.3395 111.174 41.3448 111.225Z" fill="white"/>
<path d="M52.0138 94.0569C50.3656 95.1633 48.5647 96.0688 46.657 96.7504C47.4401 96.1479 48.3072 95.6414 49.2359 95.244C50.1027 94.7432 51.0362 94.3443 52.0138 94.0569Z" fill="white"/>
<path d="M82.0188 101.312C80.9374 100.314 79.9494 99.2365 79.0649 98.0904C78.083 97.0137 77.2024 95.8643 76.4324 94.6541C78.5029 96.7227 80.372 98.9502 82.0188 101.312Z" fill="white"/>
<path d="M120.105 118.57C117.996 116.684 116.409 114.371 115.475 111.822C115.59 111.78 116.409 113.398 117.694 115.251C118.98 117.105 120.197 118.5 120.105 118.57Z" fill="white"/>
<path d="M134.645 122.915C133.721 125.356 132.542 127.711 131.125 129.948C131.533 128.711 132.063 127.509 132.709 126.359C133.232 125.158 133.881 124.005 134.645 122.915Z" fill="white"/>
<path d="M136.681 104.914C135.289 103.689 133.995 102.376 132.808 100.985C131.519 99.6721 130.33 98.2804 129.25 96.8198C131.928 99.3609 134.41 102.065 136.681 104.914Z" fill="white"/>
<path d="M114.474 90.2943C114.231 89.1881 114.116 88.0621 114.13 86.9343C114.014 85.8088 114.032 84.6754 114.183 83.5535C114.426 84.6597 114.541 85.7857 114.528 86.9135C114.648 88.0387 114.63 89.1726 114.474 90.2943Z" fill="white"/>
<path d="M132.604 89.385C131.053 89.7538 129.471 90.0069 127.875 90.1417C126.298 90.3931 124.7 90.5254 123.099 90.5374C124.65 90.1686 126.232 89.9155 127.829 89.7807C129.406 89.5291 131.003 89.3967 132.604 89.385Z" fill="white"/>
<path d="M161.093 108.385C160.031 106.803 159.08 105.162 158.247 103.47C157.3 101.829 156.472 100.134 155.767 98.3958C156.834 99.9767 157.788 101.618 158.622 103.311C159.564 104.953 160.39 106.648 161.093 108.385Z" fill="white"/>
<path d="M156.325 124.804C156.645 122.152 157.224 119.532 158.054 116.973C157.962 118.305 157.739 119.627 157.388 120.923C157.165 122.243 156.809 123.542 156.325 124.804Z" fill="white"/>
<path d="M169.52 137.744C168.627 136.014 167.86 134.233 167.224 132.412C166.465 130.632 165.834 128.809 165.334 126.956C166.221 128.69 166.988 130.473 167.63 132.294C168.385 134.073 169.016 135.893 169.52 137.744Z" fill="white"/>
<path d="M167.674 145.317C166.308 145.131 164.995 144.704 163.809 144.061C162.564 143.518 161.453 142.753 160.542 141.812C160.618 141.728 162.026 142.783 164.001 143.741C165.975 144.699 167.712 145.213 167.674 145.317Z" fill="white"/>
<path d="M184.639 162.575C183.609 161.06 182.808 159.425 182.259 157.716C183.29 159.231 184.09 160.866 184.639 162.575Z" fill="white"/>
<path d="M84.5529 186.651C84.2266 185.65 84.0263 184.618 83.956 183.576C83.7622 182.547 83.6955 181.501 83.7571 180.459C84.1065 181.466 84.3198 182.508 84.3922 183.562C84.5755 184.583 84.6294 185.619 84.5529 186.651Z" fill="white"/>
<path d="M136.535 185.457C136.57 184.441 136.737 183.432 137.032 182.451C137.205 181.446 137.505 180.463 137.928 179.521C137.893 180.538 137.723 181.547 137.423 182.527C137.255 183.532 136.957 184.515 136.535 185.457Z" fill="white"/>
</svg>
