<svg width="67" height="58" viewBox="0 0 67 58" fill="none" xmlns="http://www.w3.org/2000/svg">
<path d="M0.500488 54.8018L7.26538 44.0831C3.09341 37.974 1.59166 30.67 3.0554 23.6073C4.51914 16.5446 8.84246 10.2342 15.1753 5.91669C21.5082 1.59921 29.3925 -0.412932 37.2779 0.275897C45.1633 0.964725 52.4794 4.30468 57.7878 9.63908C63.0961 14.9735 66.0126 21.9164 65.9638 29.1027C65.915 36.289 62.9045 43.1988 57.5241 48.4735C52.1438 53.7481 44.7829 57.0061 36.8887 57.6068C28.9945 58.2075 21.1382 56.1074 14.8644 51.7195L0.500488 54.8018Z" fill="#FAFAFA"/>
<path d="M0.501228 54.8016L14.8651 51.8303H15.0105L14.9187 51.7193L14.781 51.8373C16.7937 53.253 18.9818 54.4506 21.301 55.4055C24.0656 56.5279 26.9931 57.2853 29.9943 57.6548C31.657 57.8654 33.3369 57.9421 35.0144 57.8839C35.8792 57.8422 36.7516 57.8214 37.6393 57.7589L40.3177 57.391C48.2992 55.9712 55.3842 51.8452 60.1302 45.8532C62.7666 42.5386 64.5929 38.7518 65.4871 34.7458C66.3976 30.5076 66.2695 26.1397 65.1121 21.9514C63.9092 17.5848 61.5801 13.5399 58.3166 10.1498L57.008 8.7961C56.5794 8.35874 56.0743 8.00469 55.6152 7.60205C55.156 7.19941 54.6969 6.79676 54.1765 6.46354L52.646 5.43611C52.1469 5.08649 51.62 4.77091 51.0695 4.49198L49.4625 3.60339L47.7789 2.86058C47.228 2.5994 46.6608 2.3676 46.0801 2.16637C41.5654 0.55252 36.7096 -0.123534 31.8692 0.187858C27.3048 0.466322 22.8636 1.65129 18.8598 3.65892C11.6411 7.30109 6.24524 13.3246 3.79183 20.4797C2.80882 23.5146 2.34428 26.6682 2.41438 29.8307C2.49271 32.5748 3.00822 35.2942 3.9449 37.9044C4.73433 40.0736 5.80015 42.1518 7.12072 44.0968V44.0066C2.88118 50.9001 0.807333 54.267 0.478271 54.7946C0.814986 54.274 2.94239 50.9279 7.28141 44.0899V44.0482V44.0066C5.99292 42.0658 4.96039 39.9944 4.20508 37.835C3.27348 35.2428 2.75802 32.5423 2.67456 29.8169C2.62394 26.6835 3.09608 23.5613 4.07498 20.5561C6.53116 13.4977 11.8737 7.56057 19.0052 3.96438C22.9696 1.96102 27.3725 0.775834 31.8998 0.493313C36.6812 0.187631 41.4773 0.858993 45.9347 2.45794C46.5079 2.65912 47.0675 2.89093 47.6106 3.15215L49.2788 3.88801L50.8859 4.79049C51.4192 5.06809 51.9306 5.37891 52.4164 5.72073L53.9469 6.74123C54.4597 7.07445 54.8882 7.49098 55.3627 7.86585C55.8371 8.24073 56.3192 8.6156 56.7401 9.04601L58.0181 10.3164C61.2448 13.6742 63.5474 17.6783 64.7371 22C65.8869 26.1351 66.015 30.4495 65.1121 34.6347C64.2376 38.598 62.4371 42.3452 59.8318 45.6241C55.1461 51.5567 48.1474 55.6495 40.2564 57.0717L37.6086 57.4465C36.7286 57.509 35.8639 57.5368 35.0068 57.5784C33.3452 57.6399 31.6809 57.5702 30.0326 57.3702C27.0505 57.0202 24.1387 56.2862 21.3852 55.1903C19.0757 54.2535 16.8952 53.0746 14.8881 51.6776L14.2989 51.268L14.7504 51.8026L14.8039 51.6637L0.501228 54.8016Z" fill="#263238"/>
<path d="M42.7751 27.8035C42.7827 28.3497 42.9677 28.8817 43.3069 29.333C43.6462 29.7843 44.1246 30.1348 44.6823 30.3407C45.2401 30.5465 45.8524 30.5986 46.4426 30.4903C47.0328 30.3821 47.5747 30.1183 48.0004 29.7321C48.4262 29.3458 48.7169 28.8542 48.8363 28.3188C48.9556 27.7834 48.8982 27.228 48.6713 26.722C48.4444 26.2161 48.058 25.7821 47.5605 25.4743C47.063 25.1666 46.4765 24.9988 45.8745 24.9919C45.466 24.9873 45.0607 25.0568 44.6823 25.1964C44.304 25.3361 43.9603 25.543 43.6715 25.805C43.3826 26.067 43.1545 26.3788 43.0006 26.722C42.8467 27.0653 42.77 27.433 42.7751 27.8035Z" fill="#263238"/>
<path d="M30.3852 27.8035C30.3928 28.3512 30.5787 28.8846 30.9196 29.3367C31.2605 29.7887 31.7412 30.1392 32.3012 30.3441C32.8611 30.549 33.4753 30.599 34.0666 30.488C34.6578 30.377 35.1997 30.1098 35.6239 29.7201C36.0482 29.3304 36.336 28.8356 36.451 28.2979C36.5661 27.7602 36.5032 27.2037 36.2705 26.6983C36.0377 26.1929 35.6454 25.7612 35.1429 25.4576C34.6404 25.154 34.0501 24.992 33.4463 24.9919C33.0411 24.9919 32.6399 25.0649 32.266 25.2066C31.8921 25.3483 31.5529 25.556 31.2682 25.8175C30.9834 26.079 30.7587 26.3893 30.6072 26.7302C30.4556 27.0711 30.3802 27.4359 30.3852 27.8035Z" fill="#263238"/>
<path d="M18.0251 26.4015C17.7292 26.8779 17.5949 27.4228 17.6391 27.9681C17.6833 28.5134 17.9039 29.0348 18.2734 29.4668C18.6428 29.8988 19.1446 30.2222 19.7159 30.3966C20.2872 30.5709 20.9024 30.5884 21.4846 30.4468C22.0668 30.3052 22.5899 30.0108 22.9884 29.6006C23.3869 29.1904 23.643 28.6826 23.7247 28.1409C23.8064 27.5991 23.7099 27.0476 23.4475 26.5554C23.185 26.0632 22.7682 25.6523 22.2493 25.3741C21.8986 25.1861 21.5102 25.0635 21.1066 25.0134C20.7031 24.9633 20.2926 24.9868 19.8992 25.0825C19.5058 25.1782 19.1374 25.3442 18.8156 25.5706C18.4938 25.7971 18.225 26.0796 18.0251 26.4015Z" fill="#263238"/>
</svg>
