<svg width="535" height="279" viewBox="0 0 535 279" fill="none" xmlns="http://www.w3.org/2000/svg">
<path d="M425.957 109.735H534.999L517.237 121.363V144.272C517.237 145.539 516.683 146.754 515.695 147.649C514.708 148.545 513.369 149.048 511.972 149.048H425.957C424.561 149.048 423.222 148.545 422.234 147.649C421.247 146.754 420.692 145.539 420.692 144.272V114.511C420.692 113.245 421.247 112.03 422.234 111.134C423.222 110.238 424.561 109.735 425.957 109.735Z" fill="#F5F5F5"/>
<path d="M430.504 125.903C430.504 126 446.95 126.077 467.237 126.077C487.524 126.077 503.969 126 503.969 125.903C503.969 125.806 487.524 125.73 467.237 125.73C446.95 125.73 430.504 125.806 430.504 125.903Z" fill="#E0E0E0"/>
<path d="M430.504 134.685C430.504 134.782 446.95 134.858 467.237 134.858C487.524 134.858 503.969 134.782 503.969 134.685C503.969 134.588 487.524 134.511 467.237 134.511C446.95 134.511 430.504 134.595 430.504 134.685Z" fill="#E0E0E0"/>
<path d="M448.082 39.3905L490.278 33.5382C491.631 41.5401 490.187 49.7253 486.148 56.944C482.108 64.1627 475.678 70.052 467.759 73.7846C459.84 77.5172 450.832 78.9055 441.998 77.7544C433.165 76.6032 424.952 72.9706 418.511 67.3668C412.071 61.7629 407.728 54.4696 406.092 46.5113C404.457 38.5531 405.61 30.33 409.392 22.9972C413.173 15.6645 419.392 9.59067 427.174 5.6291C434.956 1.66752 443.911 0.0172874 452.781 0.910249L448.082 39.3905Z" fill="#EBEBEB"/>
<path d="M461.774 1.00024L456.654 30.6709L488.795 25.2005C488.795 25.2005 484.043 8.59493 461.774 1.00024Z" fill="#E0E0E0"/>
<path d="M17.1779 111.38C17.127 107.63 18.3022 103.95 20.5551 100.805C22.808 97.6599 26.0375 95.1909 29.8361 93.7097C33.6346 92.2285 37.8317 91.8015 41.8976 92.4825C45.9634 93.1636 49.7156 94.9222 52.6806 97.5363C55.6455 100.15 57.6901 103.503 58.5563 107.17C59.4226 110.838 59.0715 114.656 57.5475 118.143C56.0236 121.629 53.395 124.628 49.9937 126.761C46.5923 128.893 42.5708 130.063 38.4368 130.124C32.8805 130.187 27.5232 128.25 23.5385 124.737C19.5537 121.223 17.2665 116.42 17.1779 111.38ZM48.102 110.922C48.0595 109.131 47.4335 107.392 46.3029 105.923C45.1723 104.454 43.5877 103.322 41.7488 102.668C39.9099 102.015 37.8991 101.871 35.9697 102.253C34.0403 102.635 32.2787 103.526 30.907 104.815C29.5353 106.104 28.6149 107.732 28.2617 109.495C27.9085 111.257 28.1384 113.075 28.9223 114.719C29.7063 116.364 31.0093 117.761 32.6671 118.734C34.3248 119.708 36.2632 120.214 38.2378 120.19C39.5567 120.17 40.8582 119.914 42.0681 119.438C43.2779 118.961 44.3723 118.273 45.2885 117.412C46.2047 116.551 46.9248 115.535 47.4076 114.421C47.8903 113.308 48.1263 112.119 48.102 110.922Z" fill="#F5F5F5"/>
<path d="M17.1794 111.38C17.0831 106.336 19.1964 101.463 23.0556 97.8311C26.9148 94.1987 32.2048 92.1034 37.7649 92.0049L37.9409 101.953C35.3164 102.044 32.8352 103.062 31.0279 104.791C29.2206 106.52 28.2305 108.821 28.2695 111.204C28.3085 113.586 29.3734 115.86 31.2365 117.539C33.0996 119.218 35.6131 120.17 38.2394 120.19L38.4383 130.124C32.8815 130.189 27.523 128.252 23.5378 124.739C19.5527 121.225 17.2661 116.421 17.1794 111.38Z" fill="#E0E0E0"/>
<path d="M35.8921 90.4704C39.0725 90.4021 42.2361 90.9099 45.1976 91.9642C48.159 93.0185 50.8589 94.5981 53.1393 96.6105C55.4196 98.6228 57.2346 101.028 58.4779 103.684C59.7213 106.341 60.368 109.195 60.3804 112.081L47.6006 112.262C47.5011 106.382 42.5652 102.682 36.1217 102.779L35.8921 90.4704Z" fill="#EBEBEB"/>
<path d="M153.118 178.33H126.518V207.015H153.118V178.33Z" fill="#F5F5F5"/>
<path d="M127.447 176.456H7.24805V208.813H127.447V176.456Z" fill="#E0E0E0"/>
<path d="M153.924 179.177H124.217V176.456H153.924C154.33 176.456 154.72 176.602 155.007 176.862C155.294 177.123 155.455 177.476 155.455 177.844C155.439 178.203 155.271 178.542 154.986 178.79C154.7 179.039 154.32 179.177 153.924 179.177Z" fill="#E0E0E0"/>
<path d="M153.924 208.813H124.217V206.092H153.924C154.33 206.092 154.72 206.238 155.007 206.498C155.294 206.759 155.455 207.112 155.455 207.48C155.439 207.839 155.271 208.178 154.986 208.426C154.7 208.675 154.32 208.813 153.924 208.813Z" fill="#E0E0E0"/>
<path d="M117.996 176.456H103.793V208.813H117.996V176.456Z" fill="#EBEBEB"/>
<path d="M32.8736 176.817H18.6704V209.174H32.8736V176.817Z" fill="#EBEBEB"/>
<path d="M153.118 183.072C153.118 183.155 147.364 183.217 140.262 183.217C133.161 183.217 127.406 183.155 127.406 183.072C127.406 182.988 133.161 182.926 140.262 182.926C147.364 182.926 153.118 182.995 153.118 183.072Z" fill="#E0E0E0"/>
<path d="M153.118 187.376C153.118 187.452 147.364 187.514 140.262 187.514C133.161 187.514 127.406 187.452 127.406 187.376C127.406 187.299 133.161 187.23 140.262 187.23C147.364 187.23 153.118 187.292 153.118 187.376Z" fill="#E0E0E0"/>
<path d="M153.118 192.673C153.118 192.749 147.364 192.811 140.262 192.811C133.161 192.811 127.406 192.749 127.406 192.673C127.406 192.596 133.161 192.527 140.262 192.527C147.364 192.527 153.118 192.603 153.118 192.673Z" fill="#E0E0E0"/>
<path d="M153.118 197.962C153.118 198.046 147.364 198.108 140.262 198.108C133.161 198.108 127.406 198.046 127.406 197.962C127.406 197.879 133.161 197.823 140.262 197.823C147.364 197.823 153.118 197.886 153.118 197.962Z" fill="#E0E0E0"/>
<path d="M153.118 203.259C153.118 203.343 147.364 203.405 140.262 203.405C133.161 203.405 127.406 203.343 127.406 203.259C127.406 203.176 133.161 203.121 140.262 203.121C147.364 203.121 153.118 203.183 153.118 203.259Z" fill="#E0E0E0"/>
<path d="M96.1545 189.757H42.0813V195.581H96.1545V189.757Z" fill="#EBEBEB"/>
<path d="M152.853 209.451H125.847V226.932H152.853V209.451Z" fill="#FAFAFA"/>
<path d="M126.154 208.813H11.2275V227.557H126.154V208.813Z" fill="#F5F5F5"/>
<path d="M125.313 210.083H154.339C154.431 210.083 154.521 210.067 154.606 210.035C154.69 210.004 154.767 209.957 154.832 209.898C154.896 209.84 154.948 209.77 154.983 209.693C155.018 209.617 155.036 209.535 155.036 209.452C155.036 209.283 154.963 209.122 154.832 209.002C154.702 208.883 154.525 208.815 154.339 208.813H125.313V210.083Z" fill="#F5F5F5"/>
<path d="M125.313 226.293H154.714C154.799 226.293 154.881 226.324 154.942 226.379C155.002 226.433 155.036 226.507 155.036 226.585V227.279C155.036 227.356 155.002 227.43 154.942 227.485C154.881 227.54 154.799 227.571 154.714 227.571H125.313V226.3V226.293Z" fill="#F5F5F5"/>
<path d="M152.852 212.77C152.852 212.846 146.868 212.916 139.499 212.916C132.129 212.916 126.145 212.846 126.145 212.77C126.145 212.694 132.121 212.624 139.499 212.624C146.876 212.624 152.852 212.694 152.852 212.77Z" fill="#E0E0E0"/>
<path d="M152.852 216.074C152.852 216.158 146.868 216.22 139.499 216.22C132.129 216.22 126.145 216.158 126.145 216.074C126.145 215.991 132.121 215.936 139.499 215.936C146.876 215.936 152.852 215.998 152.852 216.074Z" fill="#E0E0E0"/>
<path d="M152.852 219.386C152.852 219.462 146.868 219.525 139.499 219.525C132.129 219.525 126.145 219.462 126.145 219.386C126.145 219.309 132.121 219.24 139.499 219.24C146.876 219.24 152.852 219.302 152.852 219.386Z" fill="#E0E0E0"/>
<path d="M152.852 222.69C152.852 222.767 146.868 222.829 139.499 222.829C132.129 222.829 126.145 222.767 126.145 222.69C126.145 222.614 132.121 222.544 139.499 222.544C146.876 222.544 152.852 222.607 152.852 222.69Z" fill="#E0E0E0"/>
<path d="M156.947 229.23H129.382V276.61H156.947V229.23Z" fill="#EBEBEB"/>
<path d="M129.382 227.564H0V278.935H129.382V227.564Z" fill="#E0E0E0"/>
<path d="M159.105 278.928H125.847V275.596H159.105C159.592 275.598 160.058 275.774 160.402 276.086C160.746 276.398 160.94 276.821 160.942 277.262C160.942 277.481 160.894 277.698 160.802 277.9C160.71 278.102 160.574 278.286 160.404 278.44C160.233 278.595 160.031 278.718 159.808 278.802C159.585 278.885 159.346 278.928 159.105 278.928Z" fill="#E0E0E0"/>
<path d="M125.847 227.564H160.1C160.21 227.564 160.32 227.583 160.422 227.622C160.524 227.66 160.617 227.716 160.695 227.787C160.773 227.858 160.835 227.942 160.878 228.035C160.92 228.128 160.942 228.227 160.942 228.327V230.132C160.942 230.335 160.853 230.529 160.695 230.672C160.537 230.816 160.323 230.896 160.1 230.896H125.847V227.564Z" fill="#E0E0E0"/>
<path d="M156.948 235.575C156.948 235.658 150.78 235.721 143.173 235.721C135.567 235.721 129.399 235.658 129.399 235.575C129.399 235.492 135.567 235.436 143.173 235.436C150.78 235.436 156.948 235.499 156.948 235.575Z" fill="#E0E0E0"/>
<path d="M156.948 241.656C156.948 241.733 150.78 241.795 143.173 241.795C135.567 241.795 129.399 241.733 129.399 241.656C129.399 241.58 135.567 241.51 143.173 241.51C150.78 241.51 156.948 241.573 156.948 241.656Z" fill="#E0E0E0"/>
<path d="M156.948 247.73C156.948 247.807 150.78 247.876 143.173 247.876C135.567 247.876 129.399 247.807 129.399 247.73C129.399 247.654 135.567 247.585 143.173 247.585C150.78 247.585 156.948 247.654 156.948 247.73Z" fill="#E0E0E0"/>
<path d="M156.948 253.805C156.948 253.888 150.78 253.95 143.173 253.95C135.567 253.95 129.399 253.888 129.399 253.805C129.399 253.721 135.567 253.666 143.173 253.666C150.78 253.666 156.948 253.728 156.948 253.805Z" fill="#E0E0E0"/>
<path d="M156.948 259.886C156.948 259.962 150.78 260.025 143.173 260.025C135.567 260.025 129.399 259.962 129.399 259.886C129.399 259.81 135.567 259.74 143.173 259.74C150.78 259.74 156.948 259.803 156.948 259.886Z" fill="#E0E0E0"/>
<path d="M156.948 265.961C156.948 266.037 150.78 266.107 143.173 266.107C135.567 266.107 129.399 266.037 129.399 265.961C129.399 265.884 135.567 265.815 143.173 265.815C150.78 265.815 156.948 265.884 156.948 265.961Z" fill="#E0E0E0"/>
<path d="M156.948 272.035C156.948 272.118 150.78 272.181 143.173 272.181C135.567 272.181 129.399 272.118 129.399 272.035C129.399 271.952 135.567 271.896 143.173 271.896C150.78 271.896 156.948 271.959 156.948 272.035Z" fill="#E0E0E0"/>
<path d="M44.269 256.054V258.914C44.269 262.385 42.3712 264.322 38.7133 264.322C35.0553 264.322 33.1575 262.358 33.1575 258.914V247.731C33.1575 244.259 35.0553 242.316 38.7133 242.316C42.3712 242.316 44.269 244.287 44.269 247.731V249.813H40.7488V247.515C40.7488 245.974 39.9836 245.391 38.8204 245.391C37.6572 245.391 36.8843 245.974 36.8843 247.515V259.13C36.8843 260.671 37.6495 261.212 38.8204 261.212C39.9912 261.212 40.7488 260.664 40.7488 259.13V256.054H44.269Z" fill="#EBEBEB"/>
<path d="M46.2349 247.731C46.2349 244.259 48.2322 242.316 51.8901 242.316C55.5481 242.316 57.5454 244.287 57.5454 247.731V258.914C57.5454 262.385 55.5481 264.322 51.8901 264.322C48.2322 264.322 46.2349 262.358 46.2349 258.914V247.731ZM49.9617 259.13C49.9617 260.671 50.7269 261.254 51.8901 261.254C53.0533 261.254 53.8186 260.671 53.8186 259.13V247.515C53.8186 245.974 53.0533 245.391 51.8901 245.391C50.7269 245.391 49.9617 245.974 49.9617 247.515V259.13Z" fill="#EBEBEB"/>
<path d="M59.9492 242.586H63.676V261.025H69.7981V264.107H59.9492V242.586Z" fill="#EBEBEB"/>
<path d="M71.1487 247.731C71.1487 244.259 73.146 242.316 76.8039 242.316C80.4619 242.316 82.4669 244.287 82.4669 247.731V258.914C82.4669 262.385 80.4695 264.322 76.8039 264.322C73.1384 264.322 71.1487 262.358 71.1487 258.914V247.731ZM74.8755 259.13C74.8755 260.671 75.6408 261.254 76.8039 261.254C77.9671 261.254 78.7401 260.671 78.7401 259.13V247.515C78.7401 245.974 77.9748 245.391 76.8039 245.391C75.6331 245.391 74.8755 245.974 74.8755 247.515V259.13Z" fill="#EBEBEB"/>
<path d="M88.4114 242.586V259.185C88.4114 260.719 89.1766 261.268 90.3398 261.268C91.503 261.268 92.2683 260.712 92.2683 259.185V242.586H95.7961V258.97C95.7961 262.406 93.8983 264.378 90.2403 264.378C86.5824 264.378 84.6846 262.406 84.6846 258.97V242.586H88.4114Z" fill="#EBEBEB"/>
<path d="M106.126 264.107C105.812 263.256 105.695 262.356 105.782 261.462V258.081C105.782 256.082 105.016 255.346 103.348 255.346H102.055V264.107H98.3281V242.586H103.953C107.779 242.586 109.478 244.218 109.478 247.536V249.223C109.478 251.438 108.713 252.882 107.037 253.59C108.904 254.284 109.509 255.922 109.509 258.165V261.49C109.442 262.377 109.583 263.266 109.922 264.1L106.126 264.107ZM102.055 245.669V252.271H103.517C104.902 252.271 105.751 251.722 105.751 250.001V247.876C105.751 246.342 105.177 245.669 103.853 245.669H102.055Z" fill="#EBEBEB"/>
<path d="M43.4659 216.206H40.7493L40.8947 215.568H47.1315L46.9785 216.206H44.2695L42.869 222.551H42.0655L43.4659 216.206Z" fill="#E0E0E0"/>
<path d="M52.3681 217.296L48.1439 223.225C47.4245 224.224 46.8888 224.537 46.0547 224.537C45.8024 224.548 45.5503 224.512 45.3136 224.432C45.0769 224.352 44.8605 224.229 44.6772 224.072L45.0905 223.551C45.2232 223.675 45.3828 223.773 45.5593 223.839C45.7357 223.905 45.9252 223.937 46.1159 223.933C46.6133 223.933 46.996 223.718 47.4475 223.079L47.8531 222.524L46.4144 217.303H47.1796L48.4041 221.76L51.5646 217.289L52.3681 217.296Z" fill="#E0E0E0"/>
<path d="M58.7955 219.469C58.8206 219.872 58.7543 220.276 58.6008 220.655C58.4473 221.035 58.2097 221.381 57.9028 221.674C57.5959 221.967 57.2262 222.199 56.8164 222.357C56.4066 222.515 55.9655 222.596 55.5202 222.593C55.0668 222.636 54.61 222.548 54.2145 222.343C53.819 222.137 53.5047 221.824 53.3162 221.448L52.6581 224.481H51.8928L53.4693 217.296H54.2345L54.0509 218.136C54.3382 217.845 54.6931 217.615 55.0899 217.462C55.4868 217.31 55.916 217.239 56.3466 217.255C56.6719 217.24 56.997 217.287 57.301 217.393C57.605 217.499 57.8812 217.661 58.1119 217.87C58.3425 218.078 58.5225 218.328 58.6402 218.604C58.7579 218.879 58.8108 219.174 58.7955 219.469ZM58.0302 219.511C58.048 219.284 58.01 219.056 57.9191 218.843C57.8281 218.631 57.6865 218.44 57.5043 218.283C57.322 218.126 57.1038 218.008 56.8653 217.937C56.6267 217.866 56.3738 217.844 56.1247 217.872C55.7735 217.872 55.426 217.938 55.1046 218.067C54.7831 218.195 54.4947 218.383 54.2578 218.618C54.0208 218.853 53.8406 219.131 53.7285 219.433C53.6165 219.734 53.5751 220.054 53.607 220.372C53.5876 220.599 53.6245 220.827 53.715 221.04C53.8055 221.252 53.9473 221.444 54.13 221.6C54.3127 221.757 54.5317 221.874 54.7709 221.944C55.0102 222.014 55.2635 222.034 55.5125 222.003C55.8611 222 56.2053 221.932 56.5235 221.803C56.8416 221.674 57.1269 221.486 57.3612 221.252C57.5956 221.018 57.7739 220.743 57.8851 220.443C57.9963 220.143 58.0379 219.826 58.0072 219.511H58.0302Z" fill="#E0E0E0"/>
<path d="M59.7065 220.371C59.6854 219.964 59.7568 219.557 59.9162 219.176C60.0757 218.795 60.3197 218.447 60.6332 218.155C60.9467 217.863 61.3231 217.632 61.7389 217.477C62.1548 217.322 62.6012 217.246 63.0507 217.254C64.6577 217.254 65.6832 218.115 65.6832 219.469C65.7041 219.877 65.6328 220.284 65.4734 220.666C65.3141 221.047 65.0702 221.395 64.7568 221.688C64.4434 221.981 64.0671 222.212 63.6513 222.368C63.2354 222.523 62.7888 222.6 62.339 222.593C62 222.626 61.6572 222.593 61.3337 222.495C61.0102 222.397 60.7136 222.238 60.464 222.027C60.2144 221.816 60.0176 221.56 59.8869 221.274C59.7562 220.988 59.6947 220.681 59.7065 220.371ZM64.9026 219.511C64.9204 219.284 64.8824 219.056 64.7915 218.843C64.7005 218.631 64.5589 218.44 64.3766 218.283C64.1944 218.126 63.9762 218.008 63.7377 217.937C63.4991 217.866 63.2462 217.844 62.9971 217.872C62.651 217.876 62.3095 217.944 61.9933 218.072C61.6771 218.2 61.3929 218.384 61.1581 218.615C60.9232 218.846 60.7426 219.117 60.6272 219.413C60.5118 219.709 60.4641 220.024 60.487 220.337C60.4691 220.564 60.5069 220.791 60.5979 221.003C60.6889 221.215 60.8307 221.406 61.0131 221.563C61.1955 221.719 61.4139 221.836 61.6525 221.906C61.8911 221.976 62.1438 221.998 62.3925 221.968C62.7386 221.966 63.0805 221.9 63.3972 221.773C63.7138 221.647 63.9986 221.462 64.2337 221.232C64.4689 221.002 64.6496 220.73 64.7647 220.434C64.8797 220.138 64.9266 219.824 64.9026 219.511Z" fill="#E0E0E0"/>
<path d="M73.1649 217.296L72.1547 221.906C71.7491 223.766 70.6701 224.53 68.7876 224.53C67.8518 224.574 66.9324 224.294 66.2163 223.745L66.6755 223.204C67.2726 223.683 68.0523 223.932 68.8488 223.898C69.1493 223.924 69.4525 223.896 69.741 223.815C70.0296 223.734 70.2977 223.603 70.5301 223.428C70.7626 223.253 70.9547 223.039 71.0956 222.797C71.2365 222.554 71.3234 222.289 71.3512 222.017L71.4889 221.441C71.2004 221.731 70.8457 221.962 70.4494 222.117C70.053 222.271 69.6244 222.346 69.1932 222.336C67.6626 222.336 66.6372 221.531 66.6372 220.253C66.6255 219.858 66.703 219.465 66.8648 219.098C67.0266 218.731 67.2694 218.398 67.5782 218.119C67.8871 217.84 68.2555 217.621 68.6608 217.476C69.0662 217.331 69.4999 217.263 69.9355 217.275C70.4035 217.233 70.8744 217.326 71.2801 217.542C71.6859 217.758 72.0056 218.085 72.193 218.476L72.4379 217.317L73.1649 217.296ZM71.8486 219.379C71.8486 218.421 71.1369 217.851 69.9355 217.851C69.5992 217.844 69.2648 217.898 68.9529 218.013C68.6409 218.127 68.3582 218.298 68.1222 218.515C67.8861 218.733 67.7018 218.992 67.5806 219.276C67.4595 219.561 67.404 219.865 67.4178 220.17C67.4178 221.128 68.1218 221.697 69.3309 221.697C69.6652 221.705 69.9976 221.651 70.3079 221.538C70.6183 221.425 70.8999 221.256 71.1356 221.041C71.3713 220.825 71.5561 220.569 71.6787 220.287C71.8013 220.005 71.8591 219.703 71.8486 219.4V219.379Z" fill="#E0E0E0"/>
<path d="M78.271 217.254L78.1256 217.949H77.9113C76.6792 217.949 75.8527 218.587 75.5619 219.892L74.9803 222.558H74.2151L75.363 217.31H76.1282L75.891 218.289C76.1517 217.941 76.5092 217.662 76.9273 217.481C77.3453 217.299 77.8089 217.221 78.271 217.254Z" fill="#E0E0E0"/>
<path d="M84.9197 217.296L83.7642 222.544H82.9989L83.1826 221.718C82.8986 222.002 82.5507 222.227 82.1625 222.378C81.7743 222.529 81.3549 222.602 80.9327 222.593C80.6006 222.618 80.2664 222.579 79.9526 222.477C79.6387 222.375 79.3526 222.214 79.1133 222.003C78.8741 221.793 78.6873 221.538 78.5655 221.257C78.4437 220.975 78.3898 220.674 78.4073 220.372C78.3834 219.969 78.4502 219.567 78.6038 219.189C78.7573 218.811 78.9943 218.466 79.3003 218.174C79.6062 217.882 79.9747 217.65 80.383 217.492C80.7914 217.334 81.231 217.253 81.675 217.255C82.1275 217.211 82.5836 217.298 82.979 217.502C83.3744 217.706 83.6892 218.018 83.8789 218.393L84.1238 217.296H84.9197ZM83.6188 219.511C83.6365 219.284 83.5986 219.056 83.5076 218.843C83.4167 218.631 83.275 218.44 83.0928 218.283C82.9106 218.126 82.6924 218.008 82.4538 217.937C82.2153 217.866 81.9624 217.844 81.7133 217.872C81.3675 217.876 81.0263 217.944 80.7105 218.072C80.3947 218.2 80.111 218.385 79.8767 218.616C79.6424 218.846 79.4625 219.118 79.348 219.414C79.2336 219.71 79.1869 220.024 79.2109 220.337C79.192 220.562 79.2286 220.788 79.3178 220.999C79.407 221.21 79.5466 221.401 79.7267 221.557C79.9068 221.713 80.1227 221.831 80.3591 221.902C80.5954 221.973 80.8462 221.996 81.0934 221.968C81.4394 221.966 81.7814 221.9 82.098 221.773C82.4147 221.647 82.6994 221.463 82.9346 221.232C83.1698 221.002 83.3505 220.73 83.4655 220.434C83.5806 220.138 83.6275 219.824 83.6034 219.511H83.6188Z" fill="#E0E0E0"/>
<path d="M92.4131 219.469C92.4382 219.873 92.372 220.276 92.2185 220.655C92.0649 221.035 91.8274 221.381 91.5205 221.674C91.2136 221.967 90.8439 222.199 90.4341 222.357C90.0243 222.515 89.5831 222.596 89.1378 222.593C88.6844 222.636 88.2277 222.548 87.8322 222.343C87.4367 222.137 87.1224 221.824 86.9339 221.448L86.2758 224.481H85.5105L87.0793 217.296H87.8445L87.6609 218.136C87.9426 217.85 88.2898 217.622 88.6784 217.47C89.067 217.318 89.4876 217.244 89.9107 217.255C90.2401 217.234 90.5705 217.276 90.8804 217.38C91.1903 217.483 91.4727 217.644 91.709 217.853C91.9453 218.062 92.1302 218.314 92.2515 218.593C92.3729 218.871 92.428 219.17 92.4131 219.469ZM91.6479 219.511C91.6656 219.284 91.6277 219.056 91.5368 218.843C91.4458 218.631 91.3041 218.44 91.1219 218.283C90.9397 218.127 90.7215 218.008 90.483 217.937C90.2444 217.866 89.9915 217.844 89.7424 217.873C89.3905 217.871 89.0422 217.937 88.7198 218.065C88.3975 218.192 88.1081 218.38 87.8703 218.615C87.6326 218.851 87.4516 219.128 87.3391 219.431C87.2266 219.733 87.185 220.054 87.217 220.372C87.1978 220.598 87.2346 220.826 87.3246 221.038C87.4147 221.25 87.5558 221.441 87.7376 221.597C87.9195 221.754 88.1375 221.871 88.3757 221.941C88.614 222.012 88.8665 222.033 89.1149 222.003C89.4647 222.002 89.8106 221.936 90.1306 221.807C90.4506 221.679 90.7377 221.492 90.9737 221.257C91.2097 221.023 91.3895 220.747 91.5016 220.446C91.6137 220.146 91.6557 219.827 91.6249 219.511H91.6479Z" fill="#E0E0E0"/>
<path d="M99.4128 218.983C99.4142 219.184 99.3937 219.384 99.3516 219.58L98.6935 222.565H97.9282L98.594 219.573C98.6255 219.415 98.6434 219.255 98.6476 219.094C98.6476 218.345 98.1501 217.914 97.117 217.914C96.54 217.889 95.9741 218.065 95.5367 218.408C95.0994 218.75 94.824 219.232 94.7677 219.754L94.1478 222.565H93.3826L95.0126 215.158H95.7778L95.1274 218.102C95.4079 217.827 95.751 217.61 96.1329 217.468C96.5148 217.325 96.9263 217.259 97.339 217.276C98.6935 217.255 99.4128 217.893 99.4128 218.983Z" fill="#E0E0E0"/>
<path d="M106.731 217.296L102.522 223.225C101.802 224.224 101.267 224.53 100.433 224.53C100.18 224.54 99.9283 224.505 99.6916 224.425C99.4549 224.345 99.2384 224.222 99.0552 224.065L99.4761 223.544C99.6068 223.669 99.7649 223.767 99.9403 223.833C100.116 223.899 100.304 223.93 100.494 223.926C100.991 223.926 101.374 223.711 101.825 223.072L102.239 222.517L100.792 217.296H101.558L102.751 221.767L105.912 217.296H106.731Z" fill="#E0E0E0"/>
<path d="M124.164 1.54885H6.78052L25.912 14.0447V38.6684C25.911 39.3442 26.057 40.0135 26.3416 40.6381C26.6262 41.2626 27.0439 41.83 27.5706 42.3079C28.0974 42.7857 28.7229 43.1646 29.4113 43.4228C30.0998 43.681 30.8376 43.8134 31.5826 43.8125H124.179C125.683 43.8125 127.125 43.2705 128.189 42.3058C129.252 41.3411 129.85 40.0327 129.85 38.6684V6.69296C129.85 6.01626 129.702 5.3462 129.416 4.72118C129.13 4.09616 128.711 3.52846 128.183 3.05061C127.655 2.57275 127.028 2.19412 126.338 1.93643C125.649 1.67873 124.91 1.54702 124.164 1.54885Z" fill="#F5F5F5"/>
<path d="M119.266 18.9526C119.266 19.0567 101.565 19.14 79.7326 19.14C57.8997 19.14 40.1917 19.0498 40.1917 18.9526C40.1917 18.8554 57.8921 18.7651 79.7326 18.7651C101.573 18.7651 119.266 18.8484 119.266 18.9526Z" fill="#E0E0E0"/>
<path d="M119.266 28.4081C119.266 28.5123 101.565 28.5956 79.7326 28.5956C57.8997 28.5956 40.1917 28.5123 40.1917 28.4081C40.1917 28.304 57.8921 28.2207 79.7326 28.2207C101.573 28.2207 119.266 28.304 119.266 28.4081Z" fill="#E0E0E0"/>
</svg>
