<svg width="386" height="219" viewBox="0 0 386 219" fill="none" xmlns="http://www.w3.org/2000/svg">
<path d="M356.719 0.543457H23.1276C16.9697 0.543457 11.9778 5.07195 11.9778 10.6581V203.927C11.9778 209.513 16.9697 214.042 23.1276 214.042H356.719C362.877 214.042 367.869 209.513 367.869 203.927V10.6581C367.869 5.07195 362.877 0.543457 356.719 0.543457Z" fill="#455A64"/>
<path d="M0.330904 200.248H385.907V206.572C385.907 209.849 384.472 212.992 381.917 215.31C379.363 217.627 375.898 218.929 372.285 218.929H13.9219C10.3092 218.929 6.84452 217.627 4.28997 215.31C1.73542 212.992 0.300293 209.849 0.300293 206.572V200.248H0.330904Z" fill="#455A64"/>
<path d="M154.843 198.248L159.626 205.156H226.953L231.392 198.248H154.843Z" fill="#263238"/>
<path d="M364.808 198.248C364.808 198.366 285.818 198.457 188.408 198.457C90.9985 198.457 11.9778 198.366 11.9778 198.248C11.9778 198.13 90.9525 198.04 188.408 198.04C285.864 198.04 364.808 198.13 364.808 198.248Z" fill="#263238"/>
<path d="M353.78 12.8171H24.6723C23.2903 12.8171 22.1699 13.8335 22.1699 15.0872V190.334C22.1699 191.588 23.2903 192.604 24.6723 192.604H353.78C355.162 192.604 356.282 191.588 356.282 190.334V15.0872C356.282 13.8335 355.162 12.8171 353.78 12.8171Z" fill="#EBEBEB"/>
<path d="M355.924 192.868H21.8115L22.1712 26.2571H355.924V192.868Z" fill="white"/>
<path d="M49.5755 19.7662C49.5801 20.2463 49.4273 20.7167 49.1366 21.1179C48.846 21.5191 48.4304 21.8328 47.9429 22.0194C47.4553 22.206 46.9175 22.257 46.398 22.1658C45.8784 22.0747 45.4004 21.8456 45.0246 21.5076C44.6487 21.1696 44.3921 20.738 44.2872 20.2674C44.1822 19.7969 44.2338 19.3087 44.4352 18.8648C44.6367 18.4209 44.9789 18.0412 45.4186 17.7741C45.8583 17.5069 46.3756 17.3643 46.9048 17.3643C47.6098 17.3624 48.2868 17.6142 48.7874 18.0645C49.2881 18.5147 49.5715 19.1267 49.5755 19.7662Z" fill="#263238"/>
<path d="M33.4054 19.7663C33.4099 20.2473 33.2566 20.7185 32.9649 21.1201C32.6731 21.5217 32.2563 21.8355 31.7673 22.0214C31.2784 22.2074 30.7395 22.2571 30.2193 22.1643C29.6991 22.0715 29.2211 21.8403 28.8462 21.5002C28.4713 21.1602 28.2165 20.7265 28.1142 20.2546C28.0119 19.7827 28.0667 19.2939 28.2717 18.8503C28.4767 18.4068 28.8225 18.0286 29.2652 17.764C29.7079 17.4993 30.2274 17.3602 30.7576 17.3643C31.4586 17.368 32.1297 17.6222 32.6254 18.0719C33.1211 18.5216 33.4014 19.1304 33.4054 19.7663Z" fill="#263238"/>
<path d="M41.1638 19.7661C41.1638 20.2453 41.0071 20.7137 40.7137 21.1121C40.4202 21.5105 40.0031 21.8211 39.5151 22.0045C39.0271 22.1878 38.4901 22.2358 37.972 22.1423C37.4539 22.0488 36.978 21.8181 36.6045 21.4792C36.231 21.1404 35.9766 20.7087 35.8736 20.2387C35.7705 19.7688 35.8234 19.2816 36.0256 18.8389C36.2277 18.3962 36.57 18.0178 37.0092 17.7516C37.4484 17.4854 37.9648 17.3433 38.493 17.3433C38.844 17.3424 39.1918 17.4044 39.5163 17.5258C39.8408 17.6473 40.1356 17.8257 40.3838 18.0509C40.632 18.276 40.8287 18.5435 40.9625 18.8378C41.0964 19.1322 41.1648 19.4477 41.1638 19.7661Z" fill="#263238"/>
<path d="M356.283 176.776H21.8115V192.868H356.283V176.776Z" fill="#263238"/>
<path d="M34.4552 186.682V187.196H31.7921V186.794L33.2232 185.558C33.5752 185.252 33.6364 185.058 33.6364 184.864C33.6364 184.565 33.4068 184.392 32.963 184.392C32.803 184.384 32.6432 184.41 32.4968 184.47C32.3505 184.529 32.2217 184.619 32.1212 184.732L31.6467 184.405C31.8145 184.225 32.0262 184.082 32.2652 183.988C32.5043 183.894 32.7641 183.851 33.0242 183.864C33.7895 183.864 34.3175 184.218 34.3175 184.801C34.3125 185.004 34.2552 185.204 34.1502 185.383C34.0453 185.563 33.8955 185.718 33.7129 185.836L32.7487 186.669L34.4552 186.682Z" fill="white"/>
<path d="M34.8144 185.058C34.8144 184.981 34.8397 184.906 34.8872 184.841C34.9346 184.777 35.002 184.728 35.0807 184.698C35.1595 184.669 35.246 184.662 35.3294 184.677C35.4127 184.693 35.489 184.731 35.5487 184.786C35.6083 184.841 35.6485 184.911 35.6641 184.987C35.6798 185.062 35.6702 185.141 35.6366 185.212C35.603 185.283 35.5469 185.343 35.4754 185.385C35.4039 185.427 35.3203 185.448 35.2353 185.447C35.179 185.448 35.1232 185.438 35.0711 185.419C35.0191 185.4 34.9719 185.371 34.9325 185.335C34.8931 185.298 34.8623 185.255 34.842 185.207C34.8217 185.16 34.8123 185.109 34.8144 185.058ZM34.8144 186.842C34.8062 186.787 34.8111 186.731 34.8287 186.678C34.8463 186.625 34.8763 186.576 34.9165 186.535C34.9567 186.493 35.0063 186.459 35.0619 186.436C35.1176 186.414 35.178 186.402 35.2391 186.402C35.3002 186.402 35.3606 186.414 35.4162 186.436C35.4719 186.459 35.5215 186.493 35.5617 186.535C35.6019 186.576 35.6318 186.625 35.6494 186.678C35.6671 186.731 35.672 186.787 35.6638 186.842C35.672 186.897 35.6671 186.953 35.6494 187.006C35.6318 187.059 35.6019 187.108 35.5617 187.15C35.5215 187.192 35.4719 187.225 35.4162 187.248C35.3606 187.271 35.3002 187.283 35.2391 187.283C35.178 187.283 35.1176 187.271 35.0619 187.248C35.0063 187.225 34.9567 187.192 34.9165 187.15C34.8763 187.108 34.8463 187.059 34.8287 187.006C34.8111 186.953 34.8062 186.897 34.8144 186.842Z" fill="white"/>
<path d="M37.3388 183.92V187.196H36.673V184.419H35.9077V183.906L37.3388 183.92Z" fill="white"/>
<path d="M41.2807 186.454H40.6379V187.196H39.9874V186.454H38.0054V186.058L39.7884 183.975H40.5078L38.8242 185.996H40.0103V185.336H40.6379V185.996H41.2807V186.454Z" fill="white"/>
<path d="M321.328 185.142H47.1812V186.273H321.328V185.142Z" fill="white"/>
<path d="M132.644 183.927H46.9731V186.953H132.644V183.927Z" fill="#B9D4C2"/>
<path d="M135.415 185.711C135.415 186.459 135.17 187.191 134.712 187.813C134.254 188.435 133.602 188.92 132.84 189.206C132.078 189.493 131.24 189.567 130.431 189.421C129.621 189.275 128.878 188.915 128.295 188.386C127.712 187.857 127.315 187.183 127.154 186.449C126.993 185.715 127.075 184.954 127.391 184.263C127.707 183.572 128.241 182.981 128.927 182.565C129.613 182.149 130.419 181.927 131.244 181.927C132.35 181.927 133.411 182.326 134.193 183.035C134.975 183.745 135.415 184.707 135.415 185.711Z" fill="#B9D4C2"/>
<path d="M328.229 185.676C328.228 185.827 328.192 185.976 328.124 186.114C328.055 186.252 327.956 186.376 327.832 186.477C327.708 186.578 327.563 186.655 327.405 186.702C327.246 186.749 327.079 186.766 326.913 186.752C325.926 186.752 325.383 186.176 325.383 185.121C325.352 184.896 325.376 184.669 325.453 184.454C325.529 184.239 325.656 184.042 325.825 183.876C325.994 183.71 326.201 183.58 326.431 183.494C326.661 183.408 326.909 183.368 327.158 183.378C327.49 183.371 327.818 183.445 328.107 183.593L327.854 184.052C327.65 183.937 327.413 183.882 327.173 183.892C326.492 183.892 326.064 184.274 326.064 185.016C326.187 184.899 326.338 184.808 326.504 184.749C326.671 184.691 326.85 184.666 327.028 184.676C327.18 184.667 327.333 184.686 327.477 184.731C327.62 184.777 327.753 184.849 327.865 184.942C327.977 185.036 328.068 185.149 328.13 185.275C328.193 185.401 328.227 185.538 328.229 185.676ZM327.579 185.676C327.579 185.336 327.296 185.121 326.86 185.121C326.768 185.107 326.674 185.111 326.584 185.132C326.494 185.154 326.41 185.193 326.338 185.246C326.265 185.299 326.206 185.365 326.164 185.441C326.122 185.516 326.098 185.599 326.094 185.683C326.094 185.988 326.362 186.231 326.86 186.231C326.946 186.244 327.034 186.24 327.118 186.22C327.203 186.2 327.282 186.164 327.349 186.114C327.417 186.064 327.473 186.002 327.512 185.931C327.552 185.86 327.575 185.783 327.579 185.704V185.676Z" fill="white"/>
<path d="M328.558 184.551C328.55 184.496 328.555 184.441 328.572 184.388C328.59 184.334 328.62 184.285 328.66 184.244C328.7 184.202 328.75 184.169 328.806 184.146C328.861 184.123 328.922 184.111 328.983 184.111C329.044 184.111 329.104 184.123 329.16 184.146C329.215 184.169 329.265 184.202 329.305 184.244C329.346 184.285 329.375 184.334 329.393 184.388C329.411 184.441 329.416 184.496 329.407 184.551C329.416 184.606 329.411 184.662 329.393 184.715C329.375 184.768 329.346 184.817 329.305 184.859C329.265 184.901 329.215 184.934 329.16 184.957C329.104 184.98 329.044 184.992 328.983 184.992C328.922 184.992 328.861 184.98 328.806 184.957C328.75 184.934 328.7 184.901 328.66 184.859C328.62 184.817 328.59 184.768 328.572 184.715C328.555 184.662 328.55 184.606 328.558 184.551ZM328.558 186.336C328.55 186.281 328.555 186.225 328.572 186.172C328.59 186.119 328.62 186.07 328.66 186.028C328.7 185.986 328.75 185.953 328.806 185.93C328.861 185.907 328.922 185.895 328.983 185.895C329.044 185.895 329.104 185.907 329.16 185.93C329.215 185.953 329.265 185.986 329.305 186.028C329.346 186.07 329.375 186.119 329.393 186.172C329.411 186.225 329.416 186.281 329.407 186.336C329.416 186.39 329.411 186.446 329.393 186.499C329.375 186.553 329.346 186.602 329.305 186.643C329.265 186.685 329.215 186.718 329.16 186.741C329.104 186.764 329.044 186.776 328.983 186.776C328.922 186.776 328.861 186.764 328.806 186.741C328.75 186.718 328.7 186.685 328.66 186.643C328.62 186.602 328.59 186.553 328.572 186.499C328.555 186.446 328.55 186.39 328.558 186.336Z" fill="white"/>
<path d="M329.834 185.051C329.834 183.975 330.485 183.364 331.365 183.364C332.245 183.364 332.896 183.975 332.896 185.051C332.896 186.127 332.245 186.738 331.365 186.738C330.485 186.738 329.834 186.127 329.834 185.051ZM332.176 185.051C332.176 184.26 331.839 183.899 331.342 183.899C330.845 183.899 330.508 184.26 330.508 185.051C330.508 185.843 330.852 186.211 331.342 186.211C331.832 186.211 332.176 185.843 332.176 185.051Z" fill="white"/>
<path d="M333.304 185.051C333.304 183.975 333.954 183.364 334.834 183.364C335.714 183.364 336.365 183.975 336.365 185.051C336.365 186.127 335.714 186.738 334.834 186.738C333.954 186.738 333.304 186.127 333.304 185.051ZM335.653 185.051C335.653 184.26 335.309 183.899 334.811 183.899C334.314 183.899 333.985 184.26 333.985 185.051C333.985 185.843 334.322 186.211 334.811 186.211C335.301 186.211 335.653 185.843 335.653 185.051Z" fill="white"/>
<path d="M342.164 184.85H340.909V181.58H344.513V182.712H342.164V184.85Z" fill="white"/>
<path d="M344.513 189.112H340.909V185.85H342.156V187.981H344.513V189.112Z" fill="white"/>
<path d="M350.253 189.113H346.657V187.981H348.998V185.843H350.253V189.113Z" fill="white"/>
<path d="M350.254 184.843H349.006V182.712H346.649V181.58H350.254V184.843Z" fill="white"/>
<path d="M67.6357 36.1636H47.9379L38.0967 51.6376L47.9379 67.1046H67.6357L77.4769 51.6376L67.6357 36.1636Z" fill="#EBEBEB"/>
<path d="M49.5443 54.6641C48.6286 53.8099 47.8225 52.8644 47.1414 51.8456C46.4548 50.8172 46.1666 49.6102 46.3226 48.4162C46.5292 47.7469 46.6953 47.0679 46.82 46.3821C46.8965 45.4241 46.4527 44.4245 46.82 43.5289C47.4016 42.1405 49.4755 41.9114 50.7381 40.9465C51.7177 40.1898 52.1998 38.968 53.2788 38.3362C54.281 37.8548 55.4391 37.7121 56.5465 37.9336C57.6422 38.1626 58.7678 38.2514 59.8907 38.1974C60.6663 38.0467 61.4326 37.859 62.1864 37.6351C62.9445 37.4188 63.7647 37.4709 64.4822 37.7809C64.8327 37.9545 65.0945 38.2455 65.2117 38.5918C65.3289 38.9381 65.2923 39.3122 65.1097 39.6344C66.403 39.0929 68.0406 40.0093 68.3927 41.2519C68.5276 41.888 68.4637 42.5456 68.2081 43.1504C67.9525 43.7553 67.5154 44.2832 66.9463 44.6744C65.8014 45.4482 64.4584 45.9451 63.0435 46.1183C59.0871 46.8126 54.8017 46.4169 51.3963 44.4731" fill="#263238"/>
<path d="M67.8036 58.4826C67.6735 56.2681 66.9924 51.7279 66.319 47.6251C65.9707 45.4997 64.7546 43.5706 62.9119 42.2204C61.0692 40.8702 58.7344 40.1976 56.3706 40.3359H55.8808C50.6465 40.9329 48.2818 45.2995 49.0853 50.0549L50.6159 67.0978H63.3957C63.3957 67.0978 63.0896 64.1057 63.0896 64.078C63.0896 64.0502 68.0791 63.0644 67.8036 58.4826Z" fill="#FFBE9D"/>
<path d="M63.0814 64.0223C60.7521 64.2001 58.4169 63.7484 56.3701 62.7241C56.3701 62.7241 58.1761 65.9244 63.1809 65.2094L63.0814 64.0223Z" fill="#EB996E"/>
<path d="M64.6874 51.5541C64.7023 51.7232 64.6432 51.8908 64.5229 52.0208C64.4026 52.1507 64.2308 52.2324 64.0446 52.2483C63.955 52.259 63.864 52.2534 63.7769 52.2318C63.6898 52.2103 63.6082 52.1733 63.537 52.1229C63.4658 52.0725 63.4063 52.0097 63.3621 51.9383C63.3178 51.8669 63.2897 51.7882 63.2793 51.7068C63.2664 51.5381 63.3262 51.3714 63.4461 51.2419C63.566 51.1124 63.7367 51.0302 63.9221 51.0126C64.0117 51.0019 64.1027 51.0075 64.1898 51.029C64.277 51.0506 64.3585 51.0876 64.4297 51.138C64.5009 51.1884 64.5604 51.2511 64.6046 51.3226C64.6489 51.394 64.677 51.4727 64.6874 51.5541Z" fill="#263238"/>
<path d="M65.4007 49.9297C65.3166 50.0199 64.7426 49.6867 63.962 49.7353C63.1815 49.7839 62.6458 50.1726 62.554 50.0893C62.4621 50.006 62.554 49.895 62.8295 49.7145C63.1496 49.4847 63.5394 49.3491 63.9467 49.3257C64.3507 49.2993 64.7532 49.3918 65.0946 49.5895C65.3472 49.7422 65.439 49.888 65.4007 49.9297Z" fill="#263238"/>
<path d="M57.3596 52.0333C57.3619 52.1997 57.2983 52.3613 57.1803 52.4887C57.0623 52.6161 56.8978 52.7009 56.7167 52.7275C56.5354 52.7452 56.3537 52.6976 56.2106 52.5951C56.0675 52.4925 55.9745 52.3431 55.9515 52.179C55.9491 52.0126 56.0127 51.851 56.1307 51.7236C56.2487 51.5962 56.4132 51.5114 56.5943 51.4848C56.7756 51.4671 56.9573 51.5147 57.1004 51.6172C57.2435 51.7198 57.3366 51.8692 57.3596 52.0333Z" fill="#263238"/>
<path d="M57.7779 50.5266C57.6938 50.6169 57.1198 50.2837 56.3392 50.3323C55.5587 50.3809 55.023 50.7627 54.9312 50.6863C54.8393 50.61 54.9312 50.4919 55.2067 50.3114C55.5272 50.0765 55.9202 49.9376 56.3314 49.914C56.7426 49.8904 57.1518 49.9832 57.5024 50.1795C57.7244 50.3323 57.8162 50.485 57.7779 50.5266Z" fill="#263238"/>
<path d="M60.9772 55.5459C61.378 55.4034 61.7971 55.3078 62.2245 55.2613C62.4235 55.2613 62.6072 55.1849 62.6301 55.06C62.6332 54.875 62.5745 54.6935 62.4618 54.5393L61.773 53.2064C61.1461 52.0886 60.6164 50.9281 60.189 49.7354C60.9188 50.814 61.551 51.9447 62.0791 53.1162C62.3087 53.5813 62.5307 54.0325 62.7449 54.456C62.8786 54.6659 62.9324 54.9098 62.898 55.1502C62.8729 55.215 62.8324 55.274 62.7796 55.3232C62.7267 55.3723 62.6627 55.4104 62.5919 55.4348C62.4826 55.4671 62.3696 55.488 62.2552 55.4973C61.8332 55.5629 61.4037 55.5792 60.9772 55.5459Z" fill="#263238"/>
<path d="M57.7693 47.7499C57.7081 47.9443 56.9276 47.9026 56.0245 48.0623C55.1215 48.222 54.4022 48.4858 54.2644 48.3192C54.1267 48.1525 54.3257 48.0554 54.6088 47.8471C54.9857 47.5932 55.4238 47.4243 55.8868 47.3542C56.3472 47.272 56.8228 47.2934 57.2719 47.4167C57.6163 47.5208 57.7999 47.6597 57.7693 47.7499Z" fill="#263238"/>
<path d="M64.9663 47.9097C64.8363 48.0763 64.2929 47.9444 63.6501 47.9721C63.0073 47.9999 62.4716 48.1526 62.3339 47.9721C62.1961 47.7916 62.3339 47.7292 62.5711 47.5625C62.874 47.3564 63.2409 47.2422 63.6195 47.2363C63.9971 47.2211 64.3708 47.3107 64.6909 47.4931C64.9281 47.6667 65.0199 47.8263 64.9663 47.9097Z" fill="#263238"/>
<path d="M49.7373 53.4633C49.6455 53.4633 46.1942 52.7691 46.5386 55.8722C46.8829 58.9754 50.6174 57.9549 50.6097 57.8854C50.6021 57.816 49.7373 53.4633 49.7373 53.4633Z" fill="#FFBE9D"/>
<path d="M49.0775 56.8303C49.0775 56.8303 49.0239 56.872 48.9321 56.9206C48.7943 56.9894 48.6324 57.0069 48.4806 56.9692C48.244 56.8618 48.0433 56.6989 47.8993 56.4975C47.7554 56.2961 47.6734 56.0635 47.6618 55.8237C47.622 55.5576 47.6508 55.2866 47.746 55.0323C47.7658 54.9304 47.8132 54.8345 47.884 54.7533C47.9548 54.6721 48.0468 54.6082 48.1515 54.5672C48.2185 54.5464 48.2912 54.5468 48.3579 54.5682C48.4245 54.5896 48.4813 54.6309 48.5189 54.6852C48.5801 54.7685 48.5648 54.8379 48.5801 54.8379C48.5954 54.8379 48.649 54.7824 48.5801 54.6505C48.5524 54.5767 48.4986 54.5132 48.427 54.47C48.3764 54.4409 48.3197 54.4215 48.2604 54.4131C48.2012 54.4048 48.1407 54.4076 48.0827 54.4214C47.9447 54.4609 47.8199 54.5312 47.7196 54.6258C47.6193 54.7204 47.5468 54.8363 47.5087 54.9629C47.3939 55.2468 47.3572 55.5518 47.4016 55.8515C47.41 56.1317 47.5118 56.403 47.6935 56.6298C47.8751 56.8565 48.1282 57.0281 48.4194 57.1219C48.5151 57.1377 48.6134 57.1341 48.7074 57.1113C48.8013 57.0884 48.8885 57.047 48.9627 56.99C49.1234 56.9345 49.1234 56.8303 49.0775 56.8303Z" fill="#EB996E"/>
<path d="M66.0658 43.3418C65.8286 44.5844 63.0431 45.7299 60.709 45.6674C58.5816 45.6118 57.5255 44.6538 55.9874 43.9735C55.0078 43.5431 55.0078 43.5431 53.6916 43.7375C52.6202 43.8971 52.0616 45.0426 51.4647 45.8687C52.6126 48.1388 52.1458 50.7768 51.656 53.2343C51.6371 53.5101 51.5157 53.772 51.3116 53.9771C51.0911 54.1 50.8299 54.1486 50.5739 54.1144C50.3178 54.0801 50.0832 53.9651 49.9112 53.7897C49.345 53.2371 48.9675 52.5474 48.8245 51.8042C48.3425 50.1449 48.228 48.4153 48.4878 46.7156C48.7416 45.0152 49.5399 43.4197 50.7836 42.1269C52.4234 40.5589 54.6707 39.6304 57.0511 39.5375C59.4213 39.4581 61.7588 40.0581 63.7318 41.2522C64.673 41.7659 65.4612 42.481 66.0276 43.3348" fill="#263238"/>
<path d="M61.4896 57.1562L59.7295 56.4134C59.6318 56.3629 59.5203 56.3388 59.4081 56.3439C59.2854 56.3688 59.1784 56.436 59.1096 56.5314C58.9032 56.754 58.7741 57.0271 58.7387 57.3162C58.7033 57.6054 58.7631 57.8975 58.9106 58.1558C59.0712 58.4088 59.3249 58.6025 59.6272 58.7027C59.9294 58.803 60.2609 58.8036 60.5636 58.7043C60.8594 58.5568 61.1058 58.3397 61.2768 58.0758C61.4479 57.8118 61.5372 57.5109 61.5355 57.2048L61.4896 57.1562Z" fill="#EB996E"/>
<path d="M60.6016 58.8226C60.6016 58.8226 60.2343 59.0795 59.5685 58.9059C59.1798 58.7863 58.8548 58.5385 58.6579 58.2117C58.5328 58.0157 58.4575 57.7968 58.4377 57.571C58.4178 57.3452 58.4538 57.1182 58.5431 56.9066C58.6366 56.6858 58.7829 56.4867 58.9716 56.3235C59.0631 56.2471 59.1631 56.1796 59.2701 56.1222C59.3408 56.0881 59.4196 56.0703 59.4997 56.0703C59.5797 56.0703 59.6585 56.0881 59.7292 56.1222C60.1348 56.3235 60.4027 56.497 60.6705 56.6498C61.1832 56.9621 61.4893 57.1774 61.4358 57.219C61.3822 57.2607 61.0531 57.1288 60.5022 56.8719L59.5609 56.4276C59.492 56.4276 59.4997 56.4276 59.4231 56.4276C59.3462 56.4745 59.2745 56.5279 59.2089 56.5873C59.0648 56.7159 58.9549 56.8726 58.8875 57.0455C58.8189 57.2089 58.789 57.3835 58.7995 57.5581C58.81 57.7327 58.8609 57.9033 58.9487 58.059C59.0977 58.3209 59.3406 58.529 59.6374 58.6491C60.2114 58.8712 60.6016 58.7602 60.6016 58.8226Z" fill="#263238"/>
<path d="M60.0585 51.6305C60.0585 51.6305 60.0585 51.3458 59.8748 50.853C59.6531 50.165 59.1879 49.5624 58.5509 49.1382C58.041 48.7942 57.4357 48.5856 56.8026 48.5356C56.1695 48.4856 55.5335 48.5962 54.9657 48.8551C54.3979 49.1139 53.9206 49.5109 53.587 50.0016C53.2535 50.4923 53.0768 51.0574 53.0768 51.6339C53.0768 52.2104 53.2535 52.7756 53.587 53.2663C53.9206 53.757 54.3979 54.1539 54.9657 54.4128C55.5335 54.6717 56.1695 54.7823 56.8026 54.7323C57.4357 54.6823 58.041 54.4736 58.5509 54.1296C59.1879 53.7055 59.6531 53.1029 59.8748 52.4149C60.0279 51.922 60.0202 51.6305 60.0585 51.6305C60.0968 51.6305 60.0585 51.7068 60.0585 51.8457C60.0634 52.0488 60.0402 52.2517 59.9896 52.4496C59.8175 53.1958 59.3593 53.8624 58.6963 54.331C58.2007 54.6819 57.6157 54.9141 56.9952 55.0063C56.3748 55.0985 55.7387 55.0477 55.1455 54.8586C54.4116 54.6218 53.7764 54.1847 53.3273 53.6073C52.8781 53.0299 52.637 52.3406 52.637 51.6339C52.637 50.9273 52.8781 50.2379 53.3273 49.6606C53.7764 49.0832 54.4116 48.6461 55.1455 48.4093C55.7387 48.2202 56.3748 48.1693 56.9952 48.2615C57.6157 48.3537 58.2007 48.586 58.6963 48.9369C59.3593 49.4054 59.8175 50.0721 59.9896 50.8182C60.0406 51.0161 60.0637 51.219 60.0585 51.4222C60.0815 51.561 60.0738 51.6305 60.0585 51.6305Z" fill="#263238"/>
<path d="M68.6545 51.3252C68.6163 51.3252 68.6545 51.0475 68.4709 50.5685C68.2565 49.8998 67.8045 49.314 67.1852 48.9024C66.6889 48.5679 66.0998 48.3652 65.4838 48.3167C64.8678 48.2683 64.249 48.3761 63.6966 48.6281C63.1442 48.8801 62.6799 49.2664 62.3554 49.7439C62.0309 50.2214 61.8591 50.7712 61.8591 51.3322C61.8591 51.8931 62.0309 52.443 62.3554 52.9205C62.6799 53.398 63.1442 53.7843 63.6966 54.0363C64.249 54.2883 64.8678 54.3961 65.4838 54.3476C66.0998 54.2992 66.6889 54.0964 67.1852 53.7619C67.8045 53.3503 68.2565 52.7646 68.4709 52.0958C68.6239 51.6168 68.6163 51.3322 68.6545 51.3322C68.6928 51.3322 68.6545 51.4016 68.6545 51.5404C68.6588 51.7386 68.6382 51.9366 68.5933 52.1305C68.4225 52.8569 67.9755 53.5056 67.3306 53.9632C66.8471 54.3064 66.2759 54.5334 65.6699 54.6232C65.064 54.713 64.4428 54.6627 63.864 54.477C63.1489 54.2454 62.5303 53.8189 62.0929 53.2559C61.6555 52.6929 61.4207 52.021 61.4207 51.3322C61.4207 50.6434 61.6555 49.9715 62.0929 49.4085C62.5303 48.8455 63.1489 48.419 63.864 48.1874C64.4428 48.0016 65.064 47.9513 65.6699 48.0411C66.2759 48.1309 66.8471 48.3579 67.3306 48.7011C67.976 49.1613 68.4229 49.8123 68.5933 50.5408C68.6388 50.7347 68.6594 50.9327 68.6545 51.1309C68.6775 51.2558 68.6698 51.3252 68.6545 51.3252Z" fill="#263238"/>
<path d="M61.6446 50.61C61.568 50.6725 61.2237 50.4712 60.7645 50.4851C60.3054 50.499 59.9992 50.7003 59.8921 50.6378C59.785 50.5753 60.1064 50.138 60.7568 50.1241C61.4073 50.1102 61.744 50.5545 61.6446 50.61Z" fill="#263238"/>
<path d="M53.0803 51.1724C53.1492 51.2487 52.4758 51.8041 51.5881 52.4081C51.0861 52.8235 50.4983 53.1444 49.8586 53.3522C49.7897 53.2758 50.4632 52.7205 51.3509 52.1165C51.8516 51.6996 52.4398 51.3785 53.0803 51.1724Z" fill="#263238"/>
<path d="M124.119 51.4781C124.119 51.5753 115.265 51.6586 104.345 51.6586C93.4244 51.6586 84.5703 51.5753 84.5703 51.4781C84.5703 51.3809 93.4244 51.2976 104.345 51.2976C115.265 51.2976 124.119 51.3809 124.119 51.4781Z" fill="#263238"/>
<path d="M105.821 55.2333C105.821 55.3305 101.123 55.4138 95.3219 55.4138C89.5212 55.4138 84.8225 55.3305 84.8225 55.2333C84.8225 55.1361 89.5212 55.0459 95.3219 55.0459C101.123 55.0459 105.821 55.1292 105.821 55.2333Z" fill="#263238"/>
</svg>
