<svg width="515" height="118" viewBox="0 0 515 118" fill="none" xmlns="http://www.w3.org/2000/svg">
<path d="M466.907 82.4959C466.907 82.4959 446.62 61.3224 438.967 40.149C431.315 18.9755 434.95 21.4052 434.95 21.4052C434.95 21.4052 445.281 41.9817 453.125 51.9159C460.968 61.8501 474.98 76.4216 474.98 76.4216L466.907 82.4959Z" fill="#455A64"/>
<path d="M470.947 24.6608C470.813 24.4381 470.597 24.2657 470.336 24.1744C470.075 24.083 469.788 24.0787 469.524 24.1621C469.26 24.2455 469.037 24.4112 468.896 24.6297C468.754 24.8482 468.702 25.1053 468.75 25.355C469.982 32.797 472.661 50.2564 472.577 61.579C472.439 76.2894 472.577 81.975 472.577 81.975H480.995C480.995 81.975 479.464 51.5685 477.589 42.2938C476.258 35.8098 473.449 28.59 470.947 24.6608Z" fill="#455A64"/>
<path d="M475.555 79.5039C479.092 72.231 481.433 64.5264 482.503 56.6365C483.2 51.2217 481.952 43.9047 480.108 34.1371C479.399 30.5655 479.043 26.9435 479.044 23.3143C479.047 22.9095 479.198 22.517 479.474 22.1986C479.75 21.8802 480.134 21.654 480.567 21.5554C481 21.4569 481.456 21.4916 481.865 21.6542C482.274 21.8167 482.611 22.0979 482.825 22.4535C483.842 24.1057 486.796 29.7427 487.546 33.2693C489.59 42.9119 491.901 47.7367 490.133 56.8726C488.365 66.0084 481.822 80.1148 481.822 80.1148L475.555 79.5039Z" fill="#455A64"/>
<path d="M483.154 80.1353C483.154 80.1353 505.43 36.7123 506.976 30.27C508.522 23.8277 513.764 8.98548 514.384 9.82548C515.004 10.6655 515.914 18.5101 511.912 27.4724C507.91 36.4346 490.76 81.4543 490.76 81.4543H483.154" fill="#455A64"/>
<path d="M473.111 78.1918C472.892 78.0764 472.682 77.9465 472.484 77.803C472.093 77.5323 471.489 77.1505 470.762 76.609C468.677 75.1049 466.68 73.5037 464.777 71.812C458.503 66.2118 453.069 59.8864 448.615 52.9988C444.173 46.116 440.48 38.8573 437.588 31.3255C436.471 28.4445 435.652 26.0842 435.124 24.4389C434.848 23.6267 434.657 22.9811 434.527 22.5507C434.446 22.3248 434.389 22.0923 434.358 21.8564C434.464 22.065 434.551 22.281 434.619 22.5021L435.3 24.3695C435.881 25.9939 436.746 28.3404 437.902 31.2006C440.885 38.6782 444.609 45.8952 449.028 52.7628C453.469 59.6254 458.846 65.9531 465.03 71.5968C467.41 73.7488 469.453 75.3802 470.892 76.4563C471.604 77.0186 472.185 77.4212 472.56 77.7128C472.758 77.8586 472.942 78.0188 473.111 78.1918Z" fill="#263238"/>
<path d="M475.545 57.3583C475.44 56.9406 475.373 56.5156 475.346 56.0879C475.239 55.1854 475.101 54.0052 474.94 52.6168C474.588 49.6734 474.037 45.6261 473.249 41.1762C472.461 36.7263 471.581 32.7207 470.9 29.8328C470.571 28.4444 470.295 27.2919 470.088 26.4103C469.965 25.9939 469.881 25.569 469.836 25.1399C470.018 25.5374 470.161 25.9485 470.264 26.3686C470.517 27.167 470.846 28.3263 471.229 29.7634C471.994 32.6374 472.928 36.643 473.716 41.1068C474.504 45.5706 475.001 49.6317 475.246 52.5821C475.384 54.0608 475.468 55.2548 475.506 56.0532C475.569 56.4858 475.582 56.9233 475.545 57.3583Z" fill="#263238"/>
<path d="M480.767 22.127C480.873 22.3043 480.96 22.4902 481.028 22.6823C481.204 23.0919 481.425 23.6264 481.701 24.2929C481.976 24.9593 482.329 25.8549 482.658 26.8823C482.987 27.9097 483.423 29.0483 483.737 30.3534L484.288 32.3944C484.479 33.0886 484.609 33.8591 484.777 34.6297C485.145 36.1709 485.367 37.8439 485.634 39.6003C486.651 47.2465 486.347 54.9899 484.731 62.5509C484.326 64.2865 483.966 65.9387 483.484 67.4521C483.254 68.2088 483.063 68.9516 482.818 69.6458C482.573 70.34 482.336 71.0342 482.107 71.6521C481.678 72.9364 481.165 74.054 480.752 75.0468C480.339 76.0395 479.941 76.8864 479.597 77.5668L478.831 79.1287C478.749 79.3158 478.647 79.4949 478.525 79.6633C478.578 79.4674 478.653 79.2767 478.747 79.094L479.451 77.4973C479.773 76.8031 480.155 75.9631 480.53 74.9635C480.905 73.9638 481.41 72.8392 481.816 71.5549C482.03 70.9162 482.26 70.2498 482.497 69.5556C482.734 68.8614 482.91 68.1185 483.132 67.3619C483.599 65.8485 483.897 64.2032 484.333 62.5024C485.887 54.9749 486.192 47.2789 485.236 39.6697C484.976 37.9203 484.77 36.2542 484.425 34.72C484.257 33.9494 484.134 33.1996 483.958 32.4915C483.782 31.7834 483.606 31.1031 483.438 30.4506C483.14 29.1454 482.734 27.993 482.428 26.9795C482.122 25.9659 481.823 25.0912 481.556 24.3831C481.288 23.675 481.119 23.1613 480.974 22.7448C480.882 22.5459 480.812 22.3388 480.767 22.127Z" fill="#263238"/>
<path d="M514.122 10.7002C514.135 10.7644 514.135 10.8304 514.122 10.8946C514.122 11.0473 514.061 11.2347 514.023 11.4569C513.923 11.9498 513.801 12.6856 513.586 13.6228C513.158 15.4903 512.438 18.1768 511.291 21.4396C510.143 24.7024 508.666 28.5206 506.86 32.7276C505.054 36.9345 502.972 41.5093 500.998 46.3827C499.023 51.2561 497.439 56.0045 495.985 60.3086C494.531 64.6127 493.185 68.5003 491.861 71.6937C490.841 74.2264 489.669 76.7062 488.348 79.1218C487.889 79.9826 487.476 80.6213 487.216 81.0656L486.902 81.5585C486.87 81.6191 486.829 81.6752 486.779 81.7251C486.796 81.6599 486.822 81.5969 486.856 81.5376L487.131 81.0239C487.369 80.5658 487.751 79.9132 488.18 79.0454C489.075 77.3238 490.284 74.7968 491.547 71.5896C492.81 68.3823 494.149 64.5156 495.572 60.1976C496.995 55.8795 498.534 51.1172 500.546 46.2369C502.559 41.3566 504.633 36.7748 506.454 32.5818C508.275 28.3887 509.829 24.5844 510.969 21.3425C512.109 18.1005 512.89 15.4347 513.372 13.5812C513.617 12.6579 513.77 11.9289 513.9 11.443C513.961 11.2208 514.007 11.0404 514.045 10.8876C514.06 10.8219 514.086 10.7586 514.122 10.7002Z" fill="#263238"/>
<path d="M445.448 1.1064C445.14 0.839955 444.743 0.673745 444.32 0.633849C443.897 0.593953 443.471 0.682628 443.11 0.885959C442.748 1.08929 442.471 1.39576 442.322 1.75731C442.173 2.11885 442.161 2.51499 442.287 2.88358C443.05 5.1161 443.986 7.29676 445.088 9.40917C448.149 15.3169 457.149 36.4835 461.358 48.1254C465.566 59.7674 471.497 81.4476 471.497 81.4476L480.489 80.1286C480.489 80.1286 472.262 44.4808 464.266 31.6032C457.768 21.308 451.31 6.3963 445.448 1.1064Z" fill="#455A64"/>
<path d="M463.815 55.4006C464.011 55.71 464.167 56.0383 464.282 56.3795C464.55 57.0182 464.91 57.9484 465.315 59.1147C466.142 61.4403 467.159 64.6684 468.177 68.2991C469.195 71.9298 470.044 75.1996 470.634 77.5807C470.909 78.7054 471.131 79.6634 471.315 80.4062C471.413 80.7493 471.475 81.1004 471.498 81.4544C471.337 81.1317 471.214 80.7942 471.131 80.4478C470.917 79.705 470.641 78.7678 470.312 77.671L467.718 68.3963C466.7 64.7864 465.736 61.5305 464.994 59.191L464.106 56.4142C463.972 56.0859 463.875 55.7464 463.815 55.4006Z" fill="#263238"/>
<path d="M476.014 80.7952C475.99 80.7252 475.974 80.653 475.968 80.58C475.968 80.4064 475.907 80.1982 475.861 79.9343C475.769 79.372 475.685 78.5459 475.493 77.463C475.164 75.3248 474.575 72.2355 473.611 68.4729C472.458 64.0661 471.053 59.7167 469.402 55.4425C467.558 50.583 465.247 45.3903 462.622 39.9824C457.334 29.1874 452.054 19.6142 448.579 12.5402C446.827 9.00665 445.465 6.12566 444.569 4.11244C444.11 3.11278 443.804 2.32832 443.559 1.79378C443.46 1.54386 443.376 1.34948 443.307 1.18286C443.273 1.11668 443.25 1.04659 443.238 0.974609C443.238 0.974609 443.284 1.03709 443.353 1.16899C443.421 1.30089 443.529 1.52304 443.651 1.75907L444.738 4.04997C445.687 6.03541 447.095 8.90946 448.885 12.3805C452.429 19.4268 457.762 28.9722 463.058 39.7811C465.683 45.196 467.986 50.4303 469.815 55.2829C471.454 59.5822 472.831 63.9601 473.94 68.3965C474.685 71.3766 475.265 74.3886 475.677 77.4213C475.838 78.4973 475.891 79.3373 475.96 79.9066C475.96 80.1704 475.999 80.3787 476.014 80.5522C476.026 80.6328 476.026 80.7145 476.014 80.7952Z" fill="#263238"/>
<path d="M480.49 80.1356C480.35 79.6804 480.248 79.2163 480.184 78.7472C480.008 77.7891 479.771 76.5257 479.488 74.9984C478.868 71.8397 477.957 67.487 476.565 62.7525C475.172 58.018 473.695 53.7902 472.532 50.7634L471.154 47.1952C470.955 46.7639 470.796 46.318 470.68 45.8623C470.932 46.2701 471.149 46.6948 471.33 47.1327C471.713 47.9588 472.256 49.1668 472.861 50.6732C474.487 54.5971 475.882 58.5968 477.039 62.6553C478.197 66.7131 479.129 70.821 479.832 74.9637C480.092 76.5534 480.284 77.8447 480.383 78.7402C480.457 79.2022 480.493 79.6687 480.49 80.1356Z" fill="#263238"/>
<path d="M498.94 78.9622H463.845V117.748H498.94V78.9622Z" fill="#B9D4C2"/>
<g opacity="0.3">
<path d="M498.942 78.9626H463.847V117.748H498.942V78.9626Z" fill="black"/>
</g>
<path d="M487.744 78.9622H456.613V117.748H487.744V78.9622Z" fill="#B9D4C2"/>
<path d="M31.5382 65.4808C25.5539 62.0097 17.2738 61.9403 11.4578 65.6266C5.93262 69.1324 3.12412 75.5053 3.369 81.5935C3.61388 87.6817 6.88154 95.1653 12.9807 98.3796L30.8877 98.3101C33.7655 96.4102 36.1424 93.9544 37.8469 91.12C39.5514 88.2856 40.541 85.1433 40.7443 81.9198C41.0121 75.5053 37.5149 68.9519 31.5382 65.4808Z" fill="#455A64"/>
<path d="M22.7122 98.9904C22.628 98.5317 22.5921 98.0668 22.605 97.602C22.605 96.6023 22.5285 95.325 22.4826 93.7907C22.3908 90.5765 22.253 86.1544 22.0158 81.2324C21.7785 76.3105 21.4877 71.8883 21.2505 68.6741C21.151 67.1469 21.0669 65.8973 20.998 64.8699C20.9489 64.4081 20.9489 63.9432 20.998 63.4814C21.1261 63.9365 21.2081 64.4013 21.2429 64.8699C21.3653 65.7654 21.5107 67.0636 21.6791 68.6672C22.0005 71.8745 22.3525 76.3036 22.5974 81.2255C22.8423 86.1475 22.9111 90.5904 22.8958 93.8116C22.8958 95.4221 22.8958 96.7203 22.8346 97.6228C22.8391 98.0811 22.7981 98.5388 22.7122 98.9904Z" fill="#263238"/>
<path d="M5.17117 80.2327C5.17117 80.3715 4.18398 80.4201 2.99783 80.3299C1.81168 80.2396 0.862755 80.0522 0.870407 79.9133C0.87806 79.7745 1.85759 79.7259 3.04374 79.8092C4.2299 79.8925 5.18647 80.0869 5.17117 80.2327Z" fill="#263238"/>
<path d="M5.50911 74.7483C5.44024 74.8802 4.6061 74.6719 3.63422 74.2762C2.66235 73.8805 1.9277 73.464 1.98892 73.3321C2.05014 73.2002 2.89192 73.4154 3.8638 73.8042C4.83568 74.1929 5.57033 74.6442 5.50911 74.7483Z" fill="#263238"/>
<path d="M8.61406 70.6803C8.52988 70.7984 7.58861 70.3957 6.60908 69.6598C5.62955 68.924 5.00969 68.1534 5.12448 68.0631C5.23926 67.9729 6.01983 68.5422 6.96875 69.2572C7.91767 69.9722 8.69824 70.5554 8.61406 70.6803Z" fill="#263238"/>
<path d="M11.7472 66.8415C11.6018 66.8971 11.1503 66.2584 10.737 65.4114C10.3238 64.5645 10.1019 63.8286 10.2473 63.7661C10.3927 63.7037 10.8442 64.3493 11.2574 65.2032C11.6707 66.057 11.8849 66.786 11.7472 66.8415Z" fill="#263238"/>
<path d="M16.65 64.1201C16.5046 64.1756 16.0224 63.4953 15.6934 62.5512C15.3643 61.607 15.3414 60.7879 15.4944 60.767C15.6475 60.7462 15.9306 61.4613 16.2597 62.3915C16.5887 63.3217 16.7954 64.0576 16.65 64.1201Z" fill="#263238"/>
<path d="M24.8324 61.0447C24.9855 61.0933 24.8936 61.6765 24.6334 62.3498C24.3733 63.0232 24.0365 63.5231 23.8682 63.4745C23.6998 63.4259 23.807 62.8497 24.0671 62.1763C24.3273 61.5029 24.687 60.9961 24.8324 61.0447Z" fill="#263238"/>
<path d="M30.9073 63.4122C31.0145 63.5163 30.6242 64.0023 30.0349 64.4952C29.4457 64.988 28.8871 65.3004 28.7799 65.1894C28.6728 65.0783 29.0631 64.5993 29.6447 64.1064C30.2263 63.6135 30.8002 63.3081 30.9073 63.4122Z" fill="#263238"/>
<path d="M36.2517 66.5426C36.3436 66.6606 35.8691 67.091 35.1957 67.5075C34.5222 67.9241 33.9024 68.1601 33.8105 68.0421C33.7187 67.9241 34.2008 67.4937 34.8743 67.0771C35.5477 66.6606 36.1675 66.4246 36.2517 66.5426Z" fill="#263238"/>
<path d="M40.0445 71.2079C40.1057 71.3398 39.3634 71.7564 38.3762 72.1382C37.389 72.52 36.5396 72.7213 36.4784 72.5894C36.4171 72.4575 37.1671 72.041 38.1543 71.6661C39.1415 71.2912 39.9832 71.076 40.0445 71.2079Z" fill="#263238"/>
<path d="M41.547 76.3034C41.547 76.4422 40.7818 76.6505 39.8405 76.7546C38.8992 76.8587 38.0957 76.8379 38.0728 76.6921C38.0498 76.5464 38.838 76.352 39.7716 76.2409C40.7052 76.1298 41.5241 76.1576 41.547 76.3034Z" fill="#263238"/>
<path d="M42.3174 82.5724C42.2562 82.7043 41.445 82.5099 40.5114 82.1419C39.5778 81.774 38.8584 81.3644 38.9197 81.2325C38.9809 81.1006 39.7997 81.295 40.7333 81.6629C41.6669 82.0309 42.3863 82.4405 42.3174 82.5724Z" fill="#263238"/>
<path d="M41.6377 87.9525C41.5841 88.0844 40.5587 87.8623 39.4873 87.2236C38.416 86.5849 37.7808 85.8352 37.8879 85.731C37.9951 85.6269 38.7833 86.1892 39.8011 86.7862C40.8189 87.3832 41.6913 87.8345 41.6377 87.9525Z" fill="#263238"/>
<path d="M38.5449 92.8466C38.453 92.9576 37.6342 92.5272 36.8536 91.7566C36.0731 90.9861 35.6522 90.2224 35.7746 90.1391C35.8971 90.0558 36.5399 90.6737 37.3051 91.4026C38.0704 92.1315 38.652 92.7355 38.5449 92.8466Z" fill="#263238"/>
<path d="M9.23752 93.4227C9.3064 93.5476 8.47226 94.1169 7.31672 94.6167C6.16118 95.1166 5.21226 95.4706 5.11277 95.3595C5.01329 95.2485 5.87803 94.6653 7.02592 94.1586C8.17381 93.6518 9.161 93.2977 9.23752 93.4227Z" fill="#263238"/>
<path d="M6.5572 88.9936C6.61842 89.1255 5.92969 89.5351 5.02668 89.91C4.12368 90.2848 3.32016 90.4862 3.25128 90.3543C3.18241 90.2224 3.8788 89.8128 4.7818 89.4379C5.68481 89.063 6.48833 88.8617 6.5572 88.9936Z" fill="#263238"/>
<path d="M4.59084 85.0574C4.59084 85.1963 3.76436 85.4254 2.693 85.5642C1.62164 85.7031 0.749242 85.6961 0.726285 85.5642C0.703327 85.4323 1.55277 85.1963 2.61648 85.0644C3.68019 84.9325 4.56789 84.9255 4.59084 85.0574Z" fill="#263238"/>
<path d="M11.0405 82.9056C11.0864 83.0445 10.2752 83.3916 9.16557 83.5026C8.05594 83.6137 7.16824 83.4402 7.18354 83.3013C7.19885 83.1625 8.05594 83.1 9.09669 82.9889C10.1374 82.8778 10.9945 82.7668 11.0405 82.9056Z" fill="#263238"/>
<path d="M16.4058 78.0667C16.4517 78.1986 15.7936 78.5041 14.8753 78.5804C13.957 78.6568 13.2835 78.4832 13.2988 78.3444C13.3141 78.2056 14.0029 78.1431 14.8294 78.0667C15.6558 77.9903 16.3599 77.9279 16.4058 78.0667Z" fill="#263238"/>
<path d="M17.4326 74.1861C17.379 74.3249 16.6673 74.2208 15.8409 73.9639C15.0144 73.7071 14.3869 73.3877 14.4404 73.2697C14.494 73.1517 15.2057 73.235 16.0322 73.4988C16.8587 73.7626 17.4862 74.0542 17.4326 74.1861Z" fill="#263238"/>
<path d="M19.3981 70.2641C19.2909 70.3682 18.8012 70.0767 18.4491 69.5213C18.0971 68.9659 18.0665 68.4452 18.2196 68.4105C18.3726 68.3758 18.6328 68.7785 18.9848 69.2644C19.3368 69.7504 19.5129 70.1669 19.3981 70.2641Z" fill="#263238"/>
<path d="M17.0273 86.3208C17.0656 86.4596 16.4534 86.7165 15.6499 86.897C15.2723 86.9875 14.8847 87.0387 14.4943 87.0497L14.3872 86.7442C14.5938 86.7442 14.7239 86.7443 14.7545 86.779C14.7851 86.8137 14.6933 86.9247 14.525 87.0427L14.4102 86.7373C14.7649 86.5851 15.137 86.4687 15.5198 86.3902C16.3157 86.2167 16.9891 86.1819 17.0273 86.3208Z" fill="#263238"/>
<path d="M18.1191 93.2006C18.1727 93.3325 17.3538 93.7351 16.359 94.1031C15.3642 94.471 14.4535 94.6584 14.3999 94.5265C14.3464 94.3946 15.1652 93.985 16.1524 93.6241C17.1396 93.2631 18.0732 93.0687 18.1191 93.2006Z" fill="#263238"/>
<path d="M12.0767 90.1461C12.1303 90.278 11.6022 90.5627 10.9059 90.7779C10.2095 90.9931 9.60492 91.0625 9.55135 90.9237C9.49778 90.7848 10.0258 90.5071 10.7222 90.2919C11.4186 90.0767 12.0002 90.0073 12.0767 90.1461Z" fill="#263238"/>
<path d="M12.5348 76.1505C12.5348 76.2894 11.5859 76.2061 10.5375 75.8659C9.48907 75.5258 8.71615 75.0676 8.78503 74.9426C8.8539 74.8176 9.70334 75.0467 10.7288 75.373C11.7542 75.6993 12.5731 76.0325 12.5348 76.1505Z" fill="#263238"/>
<path d="M27.1948 74.6443C27.2866 74.7623 26.7739 75.2066 26.0545 75.637C25.3352 76.0674 24.6771 76.3312 24.5852 76.1993C24.4934 76.0674 25.0138 75.637 25.7331 75.2066C26.4525 74.7762 27.1106 74.5054 27.1948 74.6443Z" fill="#263238"/>
<path d="M27.999 81.5307C27.999 81.6696 27.4863 81.8917 26.7899 82.0236C26.0935 82.1555 25.5043 82.1486 25.466 82.0236C25.4277 81.8987 25.9787 81.6626 26.6751 81.5307C27.3715 81.3988 27.9607 81.3919 27.999 81.5307Z" fill="#263238"/>
<path d="M28.9251 89.2991C28.8563 89.4241 28.0757 89.2297 27.188 88.8548C26.3003 88.4799 25.6575 88.0703 25.6575 87.9384C25.6575 87.8065 26.5069 88.0079 27.3946 88.3827C28.2823 88.7576 28.9864 89.1672 28.9251 89.2991Z" fill="#263238"/>
<path d="M26.958 96.8589C26.8356 96.9561 26.3305 96.5812 25.8331 96.0259C25.3357 95.4705 25.0679 94.9498 25.152 94.8596C25.2362 94.7693 25.7719 95.1442 26.277 95.6996C26.782 96.255 27.0805 96.7617 26.958 96.8589Z" fill="#263238"/>
<path d="M26.5391 69.5418C26.6386 69.6529 26.3018 70.0347 25.7279 70.2916C25.154 70.5484 24.6259 70.5692 24.5877 70.4304C24.5494 70.2915 24.9626 70.0694 25.4754 69.8334C25.9881 69.5973 26.4626 69.4307 26.5391 69.5418Z" fill="#263238"/>
<path d="M33.7461 76.5048C33.7997 76.6367 33.1339 76.9699 32.2156 77.0879C31.2973 77.2059 30.5703 77.0463 30.5779 76.9074C30.5856 76.7686 31.2896 76.6783 32.1085 76.5742C32.9273 76.47 33.6925 76.3729 33.7461 76.5048Z" fill="#263238"/>
<path d="M32.3176 70.257C32.3865 70.382 31.7283 70.8124 30.7871 71.0831C29.8458 71.3539 29.0423 71.3539 29.0193 71.215C28.9964 71.0762 29.7234 70.8471 30.6111 70.5833C31.4988 70.3195 32.2411 70.1251 32.3176 70.257Z" fill="#263238"/>
<path d="M35.3159 86.1891C35.3159 86.3279 34.1833 86.4182 32.8212 86.1891C31.459 85.96 30.4412 85.4949 30.5254 85.3907C30.6096 85.2866 31.6503 85.4671 32.9589 85.6754C34.2675 85.8836 35.3159 86.0433 35.3159 86.1891Z" fill="#263238"/>
<path d="M32.6615 95.2693C32.5697 95.3804 31.7355 94.9361 30.909 94.1794C30.0826 93.4227 29.6004 92.6938 29.6999 92.5827C29.7994 92.4716 30.4652 93.0825 31.2993 93.8184C32.1335 94.5542 32.7457 95.1582 32.6615 95.2693Z" fill="#263238"/>
<path d="M20.9047 62.8425C19.0773 63.8498 17.3938 65.0576 15.8922 66.4385C12.4095 69.9018 10.2237 74.2757 9.6477 78.9344C9.38827 81.495 9.51442 84.0757 10.0227 86.6054C10.4326 88.6815 10.9613 90.7369 11.6068 92.7631C12.1578 94.4917 12.6628 95.8801 12.9995 96.8451C13.2032 97.3375 13.3643 97.8434 13.4816 98.3585C13.2014 97.8984 12.9707 97.4148 12.7929 96.9145C12.3873 95.9703 11.821 94.5958 11.2241 92.8672C10.5117 90.8421 9.9392 88.7786 9.50995 86.6887C8.95488 84.1176 8.81056 81.4873 9.08141 78.8788C9.65476 74.1047 11.9462 69.6349 15.6014 66.1609C16.7115 65.1389 17.9675 64.2563 19.3359 63.5367C19.7045 63.3328 20.088 63.1519 20.4838 62.9953C20.6158 62.9274 20.7574 62.876 20.9047 62.8425Z" fill="#263238"/>
<path d="M28.706 98.7333C28.5759 98.6709 29.984 96.7062 31.2696 93.1796C32.9906 88.5767 33.5144 83.6751 32.8002 78.858C32.4144 76.2009 31.5942 73.6108 30.3666 71.1731C29.3399 69.2134 27.9353 67.436 26.2189 65.9248C25.0051 64.9584 23.6313 64.1713 22.1478 63.5923C21.0917 63.1966 20.4565 63.0994 20.4642 63.0577C20.6189 63.0361 20.7763 63.0361 20.931 63.0577C21.3708 63.1294 21.8034 63.2339 22.2243 63.3701C23.7775 63.8868 25.2179 64.6483 26.4791 65.6194C28.2886 67.1248 29.7685 68.9266 30.8411 70.9301C32.1172 73.3891 32.969 76.0115 33.3665 78.7053C34.0981 83.599 33.5072 88.5808 31.6446 93.2213C31.3232 94.1168 30.8794 94.8804 30.5962 95.5747C30.3131 96.2689 29.9228 96.8242 29.6473 97.2824C29.3744 97.787 29.0598 98.272 28.706 98.7333Z" fill="#263238"/>
<path d="M6.55933 97.5049H38.0727L38.264 103.225H6.55933V97.5049Z" fill="#B9D4C2"/>
<path d="M9.23657 100.365L11.0426 117.831H34.0845L35.9365 100.559L9.23657 100.365Z" fill="#B9D4C2"/>
<path d="M38.2622 103.294C38.2622 103.44 31.1683 103.551 22.4137 103.551C13.6591 103.551 6.56519 103.44 6.56519 103.294C6.56519 103.149 13.6591 103.038 22.4137 103.038C31.1683 103.038 38.2622 103.149 38.2622 103.294Z" fill="#263238"/>
<path d="M35.0624 108.612C34.8982 109.006 34.6713 109.375 34.3889 109.709C33.6781 110.658 32.8571 111.536 31.9401 112.326L31.7947 112.451L31.657 112.312C29.7637 110.512 27.6941 108.872 25.4737 107.411H25.8257L23.0861 109.591L19.849 112.132L19.673 112.278L19.4893 112.139L14.232 108.126L14.5381 108.092C13.4514 109.3 12.5331 110.306 11.8138 111.111C11.4999 111.497 11.1407 111.851 10.7424 112.167C10.9946 111.745 11.2892 111.345 11.6225 110.973L14.1938 107.856L14.3315 107.696L14.5075 107.821L19.8643 111.75H19.5123L22.734 109.181L25.4813 107.009L25.6497 106.877L25.8333 106.995C28.0594 108.487 30.1108 110.183 31.9554 112.056H31.6646C32.9 110.995 34.0365 109.843 35.0624 108.612Z" fill="#263238"/>
</svg>
