<svg width="62" height="60" viewBox="0 0 62 60" fill="none" xmlns="http://www.w3.org/2000/svg">
<path fill-rule="evenodd" clip-rule="evenodd" d="M31.4793 4C17.2738 4 5.74536 15.4999 5.74536 29.6681C5.74536 43.8357 17.2738 55.3333 31.4793 55.3333C45.6849 55.3333 57.2163 43.8357 57.2163 29.6681C57.2163 15.4999 45.6849 4 31.4793 4ZM31.4793 5.99985C31.7008 5.99985 31.9216 6.00279 32.1416 6.00868C32.1423 6.01163 32.1431 6.01531 32.1438 6.01826L32.0655 6.01163C31.9437 6.98873 32.781 7.87894 34.0058 8.07774C35.303 8.2876 36.5529 7.63006 36.7951 6.60952L36.6887 6.59332C36.6954 6.58522 36.702 6.57639 36.7079 6.56829C37.2225 6.68168 37.7305 6.81127 38.2325 6.95706C38.2303 6.96737 38.2288 6.97842 38.2281 6.98946L38.1771 6.97105C37.8058 7.88409 38.3839 8.96133 39.5157 9.46939C40.7139 10.0076 42.0916 9.69323 42.5907 8.76989L42.5124 8.73602C42.5161 8.72939 42.5191 8.7235 42.5213 8.71687C42.5279 8.70435 42.5316 8.68963 42.5353 8.67564C42.9642 8.89727 43.3865 9.12921 43.8 9.37514C43.2477 10.1615 43.5327 11.3205 44.4755 12.0885C45.4936 12.9168 46.9053 12.9706 47.6273 12.2078L47.5764 12.1665C47.5778 12.1651 47.5801 12.1636 47.5815 12.1621C48.0223 12.5583 48.4498 12.9699 48.8595 13.3977C48.8521 13.4036 48.8448 13.4087 48.8388 13.4161L48.7901 13.3586C48.0112 13.9639 47.9699 15.1818 48.6956 16.1861C49.4634 17.2501 50.813 17.6669 51.7086 17.1161L51.6606 17.0469L51.665 17.0447C51.6798 17.0336 51.6924 17.0196 51.7042 17.0056C51.9914 17.4526 52.2638 17.9084 52.5207 18.3745C51.6547 18.7831 51.3225 19.9229 51.7529 21.0554C52.2114 22.2622 53.3779 23.0066 54.3761 22.7416C54.5156 23.1937 54.6441 23.6509 54.7563 24.1133C53.8031 24.2739 53.1778 25.2981 53.3004 26.5108C53.431 27.7986 54.3687 28.8206 55.4045 28.8162C55.4148 29.0997 55.4207 29.3825 55.4207 29.6681C55.4207 29.8588 55.4185 30.0488 55.4141 30.2388C54.4484 30.1431 53.5757 30.9722 53.3794 32.1783C53.1704 33.4587 53.8149 34.6913 54.8212 34.9512C54.7142 35.4151 54.5909 35.8739 54.4565 36.3267C53.5477 35.9821 52.4868 36.555 51.9832 37.6705C51.4509 38.8508 51.7507 40.2064 52.6499 40.7196C52.4255 41.1385 52.1907 41.5516 51.9419 41.9551C51.1534 41.3933 49.9839 41.6724 49.2102 42.6178C48.3914 43.6177 48.3272 44.9991 49.0552 45.7288C48.6432 46.1691 48.215 46.5954 47.7705 47.0033C47.157 46.2486 45.9506 46.2162 44.9532 46.9319C43.9203 47.6741 43.4966 48.9627 43.9728 49.8544C43.5822 50.0915 43.1828 50.3183 42.7775 50.5333C42.3839 49.6416 41.2226 49.2948 40.0716 49.7299C38.866 50.1865 38.1188 51.3425 38.3757 52.335C37.9224 52.4698 37.4639 52.5928 37.0003 52.701C36.8268 51.7629 35.8072 51.1503 34.6008 51.2718C33.3317 51.3999 32.3195 52.3071 32.2892 53.3202C32.0205 53.3291 31.7503 53.3335 31.4793 53.3335C31.1966 53.3335 30.9153 53.3269 30.6347 53.3173C30.5727 52.3262 29.5731 51.4463 28.3253 51.3204C27.1426 51.2004 26.14 51.7887 25.9377 52.6966C25.5457 52.6045 25.1573 52.5014 24.7727 52.3903C25.0894 51.492 24.5157 50.456 23.4113 49.9604C22.2278 49.4295 20.8693 49.7263 20.3547 50.6231C19.8675 50.3698 19.3905 50.1003 18.9239 49.8154V49.8014L18.9889 49.8477C19.5839 49.0614 19.3063 47.8737 18.3451 47.091C17.8039 46.6506 17.1527 46.4268 16.5525 46.4305C16.0224 46.4334 15.5314 46.6138 15.1933 46.9717L15.2509 47.0173V47.0586C14.8434 46.6867 14.4484 46.3009 14.0674 45.9011H14.0881V45.8694L14.1339 45.9246C14.9135 45.3186 14.9541 44.0986 14.2291 43.0942C13.6769 42.3299 12.8241 41.8999 12.0556 41.9227C11.7551 41.9323 11.4675 42.0118 11.2157 42.1672L11.2803 42.2563H11.2064C10.9257 41.816 10.6596 41.3653 10.4081 40.9059C11.271 40.4957 11.6016 39.3552 11.1718 38.2257C10.7154 37.0247 9.55902 36.2818 8.56476 36.5343C8.42655 36.083 8.29986 35.6264 8.18867 35.1648C9.13133 34.9939 9.74802 33.9764 9.62598 32.7717C9.49693 31.4972 8.57532 30.481 7.55189 30.4641C7.54303 30.199 7.53801 29.9347 7.53801 29.6681C7.53801 29.4598 7.53956 29.2536 7.54495 29.0467C8.4972 29.1203 9.35326 28.2971 9.54758 27.1043C9.75341 25.8415 9.12926 24.6236 8.14711 24.3409C8.25467 23.8792 8.37723 23.4227 8.51168 22.972C9.41055 23.2828 10.4454 22.7077 10.9411 21.6098C11.4645 20.4501 11.1859 19.1233 10.3228 18.5909C10.6121 18.0519 10.9212 17.5255 11.2502 17.0123C12.0386 17.6021 13.2258 17.3252 14.0098 16.368C14.816 15.3835 14.8906 14.0294 14.1966 13.2916C14.503 12.9757 14.8212 12.6702 15.1446 12.3712C15.7552 13.137 16.9711 13.1738 17.973 12.4544C19.0162 11.7049 19.4385 10.3986 18.9402 9.50621C19.3447 9.25954 19.756 9.02318 20.1768 8.80008C20.1783 8.8067 20.1805 8.81407 20.1834 8.82069C20.1879 8.83026 20.1945 8.83836 20.2019 8.84646L20.1377 8.87592C20.5223 9.78306 21.6947 10.1387 22.8553 9.69986C24.0838 9.23524 24.8369 8.04019 24.5349 7.03511L24.4655 7.06015C24.4663 7.05131 24.4648 7.041 24.4633 7.03291C24.9816 6.87607 25.5065 6.7369 26.0396 6.61394C26.0425 6.62204 26.0462 6.6294 26.0507 6.6375L25.9126 6.66033C26.0484 7.63595 27.0887 8.28023 28.3231 8.15579C29.6306 8.02399 30.668 7.06678 30.6377 6.01826L30.5587 6.02488C30.5602 6.02267 30.5624 6.02046 30.5639 6.01826C30.8673 6.00647 31.1729 5.99985 31.4793 5.99985ZM54.9504 34.3438L54.9527 34.346C54.9504 34.3563 54.9482 34.3673 54.946 34.3776L54.9504 34.3438Z" fill="black" stroke="black" stroke-width="0.952381"/>
<path fill-rule="evenodd" clip-rule="evenodd" d="M32.4742 29.6671C32.4742 29.9322 32.3686 30.1864 32.1807 30.3738C31.9927 30.5613 31.7378 30.6666 31.4721 30.6666C31.2063 30.6666 30.9514 30.5613 30.7635 30.3738C30.5755 30.1864 30.47 29.9322 30.47 29.6671C30.47 29.4021 30.5755 29.1479 30.7635 28.9604C30.9514 28.773 31.2063 28.6677 31.4721 28.6677C31.7378 28.6677 31.9927 28.773 32.1807 28.9604C32.3686 29.1479 32.4742 29.4021 32.4742 29.6671Z" fill="black" stroke="black" stroke-width="0.952375"/>
<path d="M33.7671 29.6678C33.7691 29.9694 33.7111 30.2685 33.5967 30.5478C33.4823 30.8271 33.3137 31.081 33.1005 31.295C32.8873 31.509 32.6337 31.6788 32.3544 31.7947C32.0752 31.9106 31.7757 31.9703 31.4732 31.9703C31.1707 31.9703 30.8712 31.9106 30.5919 31.7947C30.3126 31.6788 30.0591 31.509 29.8459 31.295C29.6327 31.081 29.464 30.8271 29.3496 30.5478C29.2352 30.2685 29.1773 29.9694 29.1792 29.6678C29.1773 29.3661 29.2352 29.067 29.3496 28.7877C29.464 28.5085 29.6327 28.2545 29.8459 28.0405C30.0591 27.8265 30.3126 27.6567 30.5919 27.5408C30.8712 27.4249 31.1707 27.3652 31.4732 27.3652C31.7757 27.3652 32.0752 27.4249 32.3544 27.5408C32.6337 27.6567 32.8873 27.8265 33.1005 28.0405C33.3137 28.2545 33.4823 28.5085 33.5967 28.7877C33.7111 29.067 33.7691 29.3661 33.7671 29.6678Z" stroke="black" stroke-width="0.952376"/>
<path fill-rule="evenodd" clip-rule="evenodd" d="M31.5331 6L31.0857 22.6799L31.5338 27.318L31.9702 22.6696L31.5331 6Z" fill="black" stroke="black" stroke-width="0.952381"/>
<path fill-rule="evenodd" clip-rule="evenodd" d="M37.6639 6.80591L32.9026 22.8017L32.1318 27.3971L33.7598 23.0204L37.6639 6.80591Z" fill="black" stroke="black" stroke-width="0.952381"/>
<path fill-rule="evenodd" clip-rule="evenodd" d="M43.2958 8.98218L34.6202 23.3883L32.6821 27.628L35.3909 23.8205L43.2958 8.98218Z" fill="black" stroke="black" stroke-width="0.952381"/>
<path fill-rule="evenodd" clip-rule="evenodd" d="M48.1982 12.699L36.1301 24.3984L33.1577 27.9938L36.7621 25.0147L48.1982 12.699Z" fill="black" stroke="black" stroke-width="0.952381"/>
<path fill-rule="evenodd" clip-rule="evenodd" d="M52.186 17.5894L37.3315 25.764L33.5278 28.47L37.7819 26.5224L52.186 17.5894Z" fill="black" stroke="black" stroke-width="0.952381"/>
<path fill-rule="evenodd" clip-rule="evenodd" d="M54.6602 23.469L38.132 27.3914L33.7554 29.0238L38.3704 28.2411L54.6602 23.469Z" fill="black" stroke="black" stroke-width="0.952381"/>
<path fill-rule="evenodd" clip-rule="evenodd" d="M55.4235 29.6169L38.4774 29.1714L33.8269 29.6176L38.4878 30.0528L55.4235 29.6169Z" fill="black" stroke="black" stroke-width="0.952381"/>
<path fill-rule="evenodd" clip-rule="evenodd" d="M54.6174 35.7279L38.3565 30.9794L33.7488 30.2107L38.1379 31.8343L54.6174 35.7279Z" fill="black" stroke="black" stroke-width="0.952381"/>
<path fill-rule="evenodd" clip-rule="evenodd" d="M52.284 41.3856L37.7655 32.6963L33.5144 30.7642L37.3321 33.465L52.284 41.3856Z" fill="black" stroke="black" stroke-width="0.952381"/>
<path fill-rule="evenodd" clip-rule="evenodd" d="M48.4136 46.311L36.756 34.2015L33.1509 31.2378L36.138 34.8318L48.4136 46.311Z" fill="black" stroke="black" stroke-width="0.952381"/>
<path fill-rule="evenodd" clip-rule="evenodd" d="M43.3663 50.0626L35.3919 35.3944L32.6787 31.6008L34.6308 35.8435L43.3663 50.0626Z" fill="black" stroke="black" stroke-width="0.952381"/>
<path fill-rule="evenodd" clip-rule="evenodd" d="M37.6544 52.4196L33.7576 36.1933L32.1216 31.8284L32.9064 36.4311L37.6544 52.4196Z" fill="black" stroke="black" stroke-width="0.952381"/>
<path fill-rule="evenodd" clip-rule="evenodd" d="M31.5228 53.3334L31.9702 36.5431L31.522 31.905L31.0857 36.5534L31.5228 53.3334Z" fill="black" stroke="black" stroke-width="0.952381"/>
<path fill-rule="evenodd" clip-rule="evenodd" d="M25.3621 52.6015L30.1595 36.4216L30.9303 31.8254L29.3031 36.2029L25.3621 52.6015Z" fill="black" stroke="black" stroke-width="0.952381"/>
<path fill-rule="evenodd" clip-rule="evenodd" d="M19.6521 50.2416L28.4393 35.8354L30.3766 31.595L27.6685 35.4032L19.6521 50.2416Z" fill="black" stroke="black" stroke-width="0.952381"/>
<path fill-rule="evenodd" clip-rule="evenodd" d="M14.6455 46.4512L26.9359 34.8254L29.9075 31.2292L26.3032 34.2084L14.6455 46.4512Z" fill="black" stroke="black" stroke-width="0.952381"/>
<path fill-rule="evenodd" clip-rule="evenodd" d="M10.8037 41.5236L25.7328 33.4594L29.5357 30.7534L25.2817 32.701L10.8037 41.5236Z" fill="black" stroke="black" stroke-width="0.952381"/>
<path fill-rule="evenodd" clip-rule="evenodd" d="M8.32739 35.8284L24.9301 31.8316L29.306 30.2L24.6917 30.9827L8.32739 35.8284Z" fill="black" stroke="black" stroke-width="0.952381"/>
<path fill-rule="evenodd" clip-rule="evenodd" d="M7.55981 29.6434L24.5797 30.0528L29.2302 29.6058L24.5694 29.1714L7.55981 29.6434Z" fill="black" stroke="black" stroke-width="0.952381"/>
<path fill-rule="evenodd" clip-rule="evenodd" d="M8.37158 23.5693L24.7056 28.2435L29.3133 29.0122L24.9249 27.3894L8.37158 23.5693Z" fill="black" stroke="black" stroke-width="0.952381"/>
<path fill-rule="evenodd" clip-rule="evenodd" d="M10.8071 17.8384L25.2888 26.5277L29.5399 28.4598L25.7221 25.759L10.8071 17.8384Z" fill="black" stroke="black" stroke-width="0.952381"/>
<path fill-rule="evenodd" clip-rule="evenodd" d="M14.6147 12.875L26.3093 25.0221L29.9144 27.9858L26.9273 24.3911L14.6147 12.875Z" fill="black" stroke="black" stroke-width="0.952381"/>
<path fill-rule="evenodd" clip-rule="evenodd" d="M19.5095 9.16064L27.6684 23.8289L30.3816 27.6224L28.4296 23.379L19.5095 9.16064Z" fill="black" stroke="black" stroke-width="0.952381"/>
<path fill-rule="evenodd" clip-rule="evenodd" d="M25.2603 6.80322L29.3046 23.0303L30.9407 27.3944L30.1559 22.7924L25.2603 6.80322Z" fill="black" stroke="black" stroke-width="0.952381"/>
<ellipse cx="31.4761" cy="29.3333" rx="3.38624" ry="3.33333" fill="black"/>
<path d="M60.5214 30C60.5214 45.7584 47.5376 58.5714 31.4737 58.5714C15.4099 58.5714 2.42613 45.7584 2.42613 30C2.42613 14.2416 15.4099 1.42857 31.4737 1.42857C47.5376 1.42857 60.5214 14.2416 60.5214 30Z" stroke="black" stroke-width="2.85714"/>
</svg>
