<svg width="451" height="430" viewBox="0 0 451 430" fill="none" xmlns="http://www.w3.org/2000/svg">
<path d="M312.779 215C312.779 261.166 273.576 298.63 225.169 298.63C176.761 298.63 137.559 261.166 137.559 215C137.559 168.834 176.761 131.369 225.169 131.369C273.576 131.369 312.779 168.834 312.779 215Z" stroke="black" stroke-opacity="0.1"/>
<path d="M369.345 215.519C369.345 291.228 305.061 352.64 225.714 352.64C146.367 352.64 82.0837 291.228 82.0837 215.519C82.0837 139.811 146.367 78.3986 225.714 78.3986C305.061 78.3986 369.345 139.811 369.345 215.519Z" stroke="black" stroke-opacity="0.1"/>
<path d="M411.764 215C411.764 313.367 328.243 393.148 225.166 393.148C122.089 393.148 38.5681 313.367 38.5681 215C38.5681 116.634 122.089 36.8528 225.166 36.8528C328.243 36.8528 411.764 116.634 411.764 215Z" stroke="black" stroke-opacity="0.1"/>
<path d="M449.84 215C449.84 333.444 349.274 429.5 225.17 429.5C101.066 429.5 0.5 333.444 0.5 215C0.5 96.5564 101.066 0.5 225.17 0.5C349.274 0.5 449.84 96.5564 449.84 215Z" stroke="black" stroke-opacity="0.1"/>
</svg>
