<svg width="32" height="48" viewBox="0 0 32 48" fill="none" xmlns="http://www.w3.org/2000/svg">
<g clip-path="url(#clip0_12_2430)">
<mask id="mask0_12_2430" style="mask-type:luminance" maskUnits="userSpaceOnUse" x="0" y="0" width="32" height="48">
<path d="M0 0H32V47.9904H0V0Z" fill="white"/>
</mask>
<g mask="url(#mask0_12_2430)">
<path d="M8.00151 47.9905C12.4166 47.9905 15.9999 44.4072 15.9999 39.9921V31.9937H8.00151C3.5864 31.9937 0.00317383 35.577 0.00317383 39.9921C0.00317383 44.4072 3.58651 47.9905 8.00151 47.9905Z" fill="#0ACF83"/>
<path d="M0.00317383 23.9953C0.00317383 19.5802 3.58651 15.9968 8.00151 15.9968H15.9999V31.9936H8.00151C3.5864 31.9936 0.00328494 28.4104 0.00328494 23.9953H0.00317383Z" fill="#A259FF"/>
<path d="M0.00317383 7.99844C0.00317383 3.58322 3.58651 0 8.00151 0H15.9999V15.9968H8.00151C3.5864 15.9968 0.00328494 12.4136 0.00328494 7.99844H0.00317383Z" fill="#F24E1E"/>
<path d="M16 0H23.9984C28.4136 0 31.9968 3.58333 31.9968 7.99844C31.9968 12.4136 28.4136 15.9968 23.9984 15.9968H16V0Z" fill="#FF7262"/>
<path d="M31.9968 23.9953C31.9968 28.4104 28.4136 31.9936 23.9984 31.9936C19.5833 31.9936 16 28.4104 16 23.9953C16 19.5802 19.5833 15.9968 23.9984 15.9968C28.4136 15.9968 31.9968 19.5802 31.9968 23.9953Z" fill="#1ABCFE"/>
</g>
</g>
<defs>
<clipPath id="clip0_12_2430">
<rect width="32" height="48" fill="white"/>
</clipPath>
</defs>
</svg>
